{"glyphs":{"0":{"ha":857,"x_min":59,"x_max":798,"o":"m 59 530 q 176 930 59 781 q 429 1065 280 1065 q 682 930 577 1065 q 798 524 798 781 q 682 118 798 267 q 429 -17 577 -17 q 176 118 281 -17 q 59 530 59 267 m 214 530 q 275 240 214 355 q 429 127 335 127 q 583 240 522 127 q 644 524 644 353 q 583 809 644 696 q 429 922 522 922 q 275 809 336 922 q 214 530 214 697 z "},"1":{"ha":857,"x_min":195,"x_max":534,"o":"m 376 899 l 195 899 l 282 1047 l 534 1047 l 534 0 l 376 0 l 376 899 z "},"2":{"ha":857,"x_min":35,"x_max":738,"o":"m 348 149 l 738 149 l 738 0 l 35 0 l 398 440 q 488 554 452 506 q 543 635 524 602 q 582 749 582 699 q 530 872 582 823 q 403 922 479 922 q 221 734 244 922 l 64 734 q 398 1065 102 1065 q 638 974 541 1065 q 736 749 736 883 q 690 581 736 663 q 623 480 667 538 q 511 341 578 421 l 348 149 z "},"3":{"ha":857,"x_min":59,"x_max":726,"o":"m 359 486 l 359 621 q 494 644 460 621 q 556 770 556 683 q 511 879 556 837 q 397 922 467 922 q 295 890 331 922 q 243 780 260 857 l 86 780 q 186 997 111 928 q 399 1065 262 1065 q 623 984 536 1065 q 710 776 710 903 q 596 552 710 632 q 726 303 726 475 q 631 73 726 162 q 388 -17 536 -17 q 107 122 199 -17 q 59 283 69 180 l 212 283 q 271 167 224 208 q 394 127 318 127 q 521 178 471 127 q 571 310 571 230 q 496 460 571 416 q 359 486 452 486 z "},"4":{"ha":857,"x_min":13,"x_max":796,"o":"m 685 292 l 796 292 l 796 149 l 685 149 l 685 0 l 527 0 l 527 149 l 13 149 l 685 1125 l 685 292 m 527 292 l 527 643 l 286 292 l 527 292 z "},"5":{"ha":857,"x_min":26,"x_max":746,"o":"m 730 899 l 408 899 l 356 726 q 378 728 368 727 q 397 728 389 728 q 648 625 550 728 q 746 363 746 523 q 635 90 746 197 q 355 -17 524 -17 q 26 178 146 -17 l 146 279 q 245 161 195 195 q 368 127 296 127 q 528 193 463 127 q 592 359 592 262 q 528 524 592 460 q 369 589 465 589 q 185 496 262 589 l 133 496 l 298 1047 l 730 1047 l 730 899 z "},"6":{"ha":857,"x_min":77,"x_max":781,"o":"m 545 1084 l 661 997 l 411 656 q 446 661 431 659 q 468 662 460 662 q 688 564 595 662 q 781 332 781 468 q 677 85 781 189 q 431 -17 575 -17 q 182 84 289 -17 q 77 323 77 185 q 179 587 77 448 l 545 1084 m 627 322 q 569 463 627 406 q 429 522 511 522 q 288 464 346 522 q 231 324 231 406 q 288 184 231 242 q 429 127 346 127 q 568 184 511 127 q 627 322 627 243 z "},"7":{"ha":857,"x_min":66,"x_max":852,"o":"m 589 899 l 72 899 l 72 1047 l 852 1047 l 192 -36 l 66 43 l 589 899 z "},"8":{"ha":857,"x_min":100,"x_max":758,"o":"m 241 545 q 126 766 126 626 q 214 979 126 894 q 433 1065 302 1065 q 650 979 563 1065 q 736 766 736 895 q 622 545 736 631 q 721 446 685 511 q 758 300 758 381 q 667 72 758 161 q 434 -17 576 -17 q 195 73 289 -17 q 100 298 100 162 q 241 545 100 474 m 275 767 q 320 654 275 700 q 431 608 366 608 q 542 654 496 608 q 588 765 588 701 q 542 876 588 829 q 431 922 496 922 q 321 876 367 922 q 275 767 275 829 m 255 303 q 305 178 255 231 q 429 127 356 127 q 551 178 500 127 q 602 301 602 229 q 551 425 602 374 q 429 475 500 475 q 306 425 357 475 q 255 303 255 374 z "},"9":{"ha":857,"x_min":77,"x_max":781,"o":"m 312 -36 l 196 50 l 446 391 q 412 387 426 389 q 389 386 397 386 q 169 483 262 386 q 77 715 77 579 q 179 962 77 859 q 426 1065 282 1065 q 675 963 569 1065 q 781 724 781 862 q 677 460 781 602 l 312 -36 m 231 726 q 288 584 231 642 q 429 526 347 526 q 568 583 511 526 q 627 724 627 642 q 568 864 627 806 q 428 922 511 922 q 289 864 347 922 q 231 726 231 806 z "},"\u0000":{"ha":0,"x_min":0,"x_max":0,"o":""},"\b":{"ha":0,"x_min":0,"x_max":0,"o":""},"\t":{"ha":429,"x_min":0,"x_max":0,"o":""},"\r":{"ha":694,"x_min":0,"x_max":0,"o":""},"\u001d":{"ha":0,"x_min":0,"x_max":0,"o":""}," ":{"ha":429,"x_min":0,"x_max":0,"o":""},"!":{"ha":460,"x_min":136,"x_max":325,"o":"m 136 76 q 164 142 136 114 q 231 170 192 170 q 297 142 269 170 q 325 75 325 114 q 297 8 325 36 q 231 -19 270 -19 q 163 8 191 -19 q 136 76 136 35 m 154 233 l 154 1047 l 307 1047 l 307 233 l 154 233 z "},"\"":{"ha":570,"x_min":74,"x_max":496,"o":"m 218 626 l 103 626 l 74 1047 l 248 1047 l 218 626 m 467 626 l 351 626 l 322 1047 l 496 1047 l 467 626 z "},"#":{"ha":857,"x_min":28,"x_max":832,"o":"m 832 753 l 832 633 l 667 633 l 643 439 l 793 439 l 793 319 l 628 319 l 588 -5 l 469 11 l 507 319 l 306 319 l 265 -5 l 144 11 l 183 322 l 28 322 l 28 439 l 200 439 l 224 633 l 68 633 l 68 753 l 239 753 l 277 1057 l 395 1041 l 359 753 l 559 753 l 597 1057 l 716 1041 l 680 753 l 832 753 m 545 633 l 345 633 l 321 439 l 522 439 l 545 633 z "},"$":{"ha":857,"x_min":79,"x_max":756,"o":"m 504 1196 l 504 1063 q 635 1010 584 1050 q 732 887 686 970 l 600 813 q 444 922 540 922 q 345 886 384 922 q 305 798 305 851 q 337 718 305 750 q 463 644 368 687 q 599 574 545 607 q 680 511 652 541 q 756 311 756 428 q 687 107 756 195 q 504 -11 618 20 l 504 -151 l 385 -151 l 385 -15 q 182 77 252 7 q 79 292 113 146 l 229 323 q 303 176 259 220 q 426 134 349 134 q 551 182 500 134 q 600 305 600 230 q 559 413 600 372 q 497 457 538 433 q 392 511 456 482 q 219 620 260 570 q 153 797 153 694 q 169 888 153 846 q 214 964 184 930 q 287 1023 243 998 q 385 1063 330 1048 l 385 1196 l 504 1196 z "},"%":{"ha":1272,"x_min":52,"x_max":1220,"o":"m 52 814 q 127 985 52 913 q 304 1058 204 1058 q 482 985 408 1058 q 557 811 557 912 q 482 637 557 709 q 302 564 408 564 q 125 638 199 564 q 52 814 52 712 m 170 812 q 210 716 170 755 q 305 677 249 677 q 399 716 360 677 q 439 811 439 755 q 399 905 439 866 q 304 945 360 945 q 210 905 249 945 q 170 812 170 866 m 899 1065 l 973 1023 l 374 -17 l 299 28 l 899 1065 m 715 241 q 790 411 715 338 q 967 484 867 484 q 1145 410 1071 484 q 1220 237 1220 338 q 1145 62 1220 134 q 965 -9 1071 -9 q 788 64 862 -9 q 715 241 715 137 m 833 238 q 872 142 833 181 q 968 102 911 102 q 1062 142 1023 102 q 1101 237 1101 181 q 1062 332 1101 292 q 967 371 1023 371 q 873 332 912 371 q 833 238 833 292 z "},"&":{"ha":1015,"x_min":84,"x_max":1015,"o":"m 537 583 l 726 355 l 732 361 q 789 427 762 395 q 842 491 817 458 l 945 385 q 895 322 926 358 q 821 239 864 286 l 1015 0 l 819 0 l 714 128 q 415 -20 570 -20 q 179 68 276 -20 q 84 290 84 158 q 235 550 84 446 l 303 597 q 308 600 304 597 q 317 608 311 603 q 214 825 214 718 q 283 998 214 931 q 465 1064 353 1064 q 643 1000 572 1064 q 713 837 713 935 q 675 714 713 769 q 537 583 637 659 m 412 494 l 403 488 q 271 380 306 420 q 236 294 236 339 q 288 174 236 229 q 408 122 342 122 q 618 242 499 122 l 412 494 m 446 694 l 458 703 q 513 747 492 728 q 545 779 535 766 q 565 840 565 804 q 537 907 565 882 q 463 933 509 933 q 391 907 420 933 q 361 842 361 882 q 398 751 361 796 l 437 704 q 446 694 439 701 z "},"'":{"ha":321,"x_min":74,"x_max":248,"o":"m 218 626 l 103 626 l 74 1047 l 248 1047 l 218 626 z "},"(":{"ha":509,"x_min":125,"x_max":414,"o":"m 273 1157 l 414 1103 q 311 776 340 926 q 288 616 296 700 q 281 433 281 532 q 288 250 281 334 q 311 90 296 166 q 414 -236 340 -59 l 273 -290 q 125 433 125 20 q 273 1157 125 847 z "},")":{"ha":509,"x_min":94,"x_max":383,"o":"m 235 -290 l 94 -236 q 198 90 169 -59 q 229 433 229 239 q 198 776 229 626 q 94 1103 168 926 l 235 1157 q 383 433 383 847 q 235 -290 383 20 z "},"*":{"ha":857,"x_min":157,"x_max":699,"o":"m 370 962 l 360 1145 l 496 1145 l 486 962 l 657 1029 l 699 899 l 522 853 l 637 711 l 528 631 l 428 785 l 329 631 l 218 711 l 335 852 l 157 899 l 199 1029 l 370 962 z "},"+":{"ha":857,"x_min":67,"x_max":789,"o":"m 67 481 l 67 608 l 366 608 l 366 901 l 491 901 l 491 608 l 789 608 l 789 481 l 491 481 l 491 189 l 366 189 l 366 481 l 67 481 z "},",":{"ha":429,"x_min":30,"x_max":326,"o":"m 191 196 l 326 143 l 133 -244 l 30 -201 l 191 196 z "},"-":{"ha":302,"x_min":0,"x_max":302,"o":"m 0 402 l 302 402 l 302 269 l 0 269 l 0 402 z "},".":{"ha":429,"x_min":120,"x_max":309,"o":"m 120 76 q 148 142 120 114 q 214 170 176 170 q 281 142 253 170 q 309 75 309 114 q 281 8 309 36 q 214 -19 254 -19 q 147 8 174 -19 q 120 76 120 35 z "},"/":{"ha":720,"x_min":-9,"x_max":715,"o":"m 589 1157 l 715 1101 l 115 -286 l -9 -230 l 589 1157 z "},":":{"ha":429,"x_min":120,"x_max":309,"o":"m 120 76 q 148 142 120 114 q 214 170 176 170 q 281 142 253 170 q 309 75 309 114 q 281 8 309 36 q 214 -19 254 -19 q 147 8 174 -19 q 120 76 120 35 m 120 586 q 148 651 120 623 q 214 679 176 679 q 281 651 253 679 q 309 585 309 623 q 281 517 309 545 q 214 490 254 490 q 147 518 175 490 q 120 586 120 545 z "},";":{"ha":429,"x_min":30,"x_max":342,"o":"m 191 196 l 326 143 l 133 -244 l 30 -201 l 191 196 m 153 585 q 181 651 153 623 q 248 679 209 679 q 314 651 286 679 q 342 585 342 623 q 314 517 342 545 q 248 490 287 490 q 180 518 208 490 q 153 585 153 545 z "},"<":{"ha":857,"x_min":88,"x_max":769,"o":"m 769 930 l 769 774 l 255 531 l 769 288 l 769 133 l 88 465 l 88 599 l 769 930 z "},"=":{"ha":857,"x_min":67,"x_max":789,"o":"m 67 597 l 67 712 l 789 712 l 789 597 l 67 597 m 67 377 l 67 492 l 789 492 l 789 377 l 67 377 z "},">":{"ha":857,"x_min":88,"x_max":768,"o":"m 88 132 l 88 288 l 602 531 l 88 775 l 88 930 l 768 597 l 768 464 l 88 132 z "},"?":{"ha":680,"x_min":84,"x_max":597,"o":"m 420 489 l 573 489 q 518 323 573 386 q 336 241 447 241 q 172 309 238 241 q 106 476 106 377 q 147 602 106 555 q 290 686 189 650 q 416 745 389 723 q 443 814 443 768 q 415 889 443 861 q 340 916 387 916 q 265 889 293 916 q 237 815 237 862 q 245 757 237 794 l 87 757 q 85 788 86 774 q 84 812 84 802 q 157 991 84 920 q 338 1062 229 1062 q 523 990 449 1062 q 597 810 597 918 q 523 632 597 700 q 347 549 476 589 q 258 464 258 522 q 265 433 258 448 q 282 408 271 418 q 308 391 293 397 q 338 385 322 385 q 420 489 413 385 m 247 76 q 275 142 247 114 q 341 170 302 170 q 408 142 380 170 q 435 75 435 114 q 408 8 435 36 q 342 -19 380 -19 q 275 8 302 -19 q 247 76 247 36 z "},"@":{"ha":1223,"x_min":73,"x_max":1149,"o":"m 901 798 l 858 441 q 854 404 855 422 q 853 370 853 386 q 895 319 853 319 q 1002 403 954 319 q 1050 590 1050 485 q 933 863 1050 757 q 637 971 817 971 q 319 842 448 971 q 191 525 191 714 q 237 320 191 420 q 368 165 284 226 q 650 83 481 83 q 983 164 809 83 l 993 170 l 1028 72 l 1020 68 q 651 -18 843 -18 q 296 85 439 -18 q 132 275 191 159 q 73 524 73 397 q 235 909 73 753 q 635 1065 397 1065 q 1002 931 854 1065 q 1149 598 1149 798 q 1069 333 1149 444 q 880 221 989 221 q 762 303 793 221 q 576 218 679 218 q 390 298 465 218 q 317 503 317 378 q 399 722 317 636 q 605 810 481 810 q 789 722 719 810 l 798 798 l 901 798 m 762 536 q 720 641 762 599 q 612 683 675 683 q 500 630 544 683 q 456 496 456 578 q 492 380 456 426 q 583 335 527 335 q 708 395 654 335 q 762 536 762 456 z "},"A":{"ha":1029,"x_min":5,"x_max":1023,"o":"m 741 254 l 292 254 l 176 0 l 5 0 l 524 1113 l 1023 0 l 850 0 l 741 254 m 676 403 l 521 759 l 358 403 l 676 403 z "},"B":{"ha":821,"x_min":125,"x_max":747,"o":"m 125 0 l 125 1047 l 283 1047 q 450 1031 388 1047 q 557 976 513 1015 q 627 876 601 936 q 653 754 653 816 q 567 564 653 642 q 699 464 650 535 q 747 300 747 393 q 661 92 747 177 q 543 20 608 40 q 365 0 472 0 l 125 0 m 283 597 l 333 597 q 462 636 421 597 q 503 751 503 675 q 461 864 503 825 q 339 902 419 902 l 283 902 l 283 597 m 283 149 l 381 149 q 538 191 488 149 q 591 306 591 236 q 541 420 591 374 q 363 465 491 465 l 283 465 l 283 149 z "},"C":{"ha":973,"x_min":73,"x_max":899,"o":"m 899 991 l 899 804 q 616 918 762 918 q 344 802 454 918 q 233 520 233 687 q 344 242 233 355 q 616 129 455 129 q 758 156 700 129 q 826 193 791 170 q 899 248 861 216 l 899 58 q 614 -19 764 -19 q 231 138 390 -19 q 73 519 73 296 q 205 876 73 719 q 627 1067 368 1067 q 899 991 768 1067 z "},"D":{"ha":1008,"x_min":125,"x_max":935,"o":"m 125 0 l 125 1047 l 345 1047 q 595 1016 503 1047 q 773 912 693 985 q 935 524 935 764 q 766 133 935 282 q 589 29 682 58 q 342 0 502 0 l 125 0 m 283 149 l 355 149 q 532 171 461 149 q 659 246 602 195 q 776 524 776 353 q 661 803 776 696 q 355 899 557 899 l 283 899 l 283 149 z "},"E":{"ha":785,"x_min":125,"x_max":703,"o":"m 703 899 l 283 899 l 283 647 l 691 647 l 691 498 l 283 498 l 283 149 l 703 149 l 703 0 l 125 0 l 125 1047 l 703 1047 l 703 899 z "},"F":{"ha":706,"x_min":125,"x_max":648,"o":"m 648 899 l 283 899 l 283 647 l 635 647 l 635 498 l 283 498 l 283 0 l 125 0 l 125 1047 l 648 1047 l 648 899 z "},"G":{"ha":1170,"x_min":73,"x_max":1097,"o":"m 664 545 l 1097 545 l 1097 511 q 1069 302 1097 393 q 977 144 1042 218 q 606 -20 831 -20 q 230 139 387 -20 q 73 522 73 298 q 233 908 73 749 q 621 1067 392 1067 q 850 1017 743 1067 q 1050 854 951 967 l 937 747 q 623 918 808 918 q 345 804 457 918 q 232 522 232 691 q 357 233 232 347 q 612 128 475 128 q 821 207 728 128 q 925 397 914 286 l 664 397 l 664 545 z "},"H":{"ha":1019,"x_min":125,"x_max":893,"o":"m 283 637 l 735 637 l 735 1047 l 893 1047 l 893 0 l 735 0 l 735 489 l 283 489 l 283 0 l 125 0 l 125 1047 l 283 1047 l 283 637 z "},"I":{"ha":410,"x_min":125,"x_max":283,"o":"m 283 1047 l 283 0 l 125 0 l 125 1047 l 283 1047 z "},"J":{"ha":570,"x_min":-26,"x_max":444,"o":"m 444 1047 l 444 370 q 427 189 444 248 q 370 74 410 121 q 159 -19 290 -19 q -26 33 60 -19 l 52 168 q 159 129 109 129 q 257 182 230 129 q 286 370 286 236 l 286 1047 l 444 1047 z "},"K":{"ha":920,"x_min":125,"x_max":905,"o":"m 283 629 l 691 1047 l 902 1047 l 429 573 l 905 0 l 693 0 l 316 466 l 283 433 l 283 0 l 125 0 l 125 1047 l 283 1047 l 283 629 z "},"L":{"ha":616,"x_min":125,"x_max":591,"o":"m 283 1047 l 283 149 l 591 149 l 591 0 l 125 0 l 125 1047 l 283 1047 z "},"M":{"ha":1335,"x_min":89,"x_max":1239,"o":"m 89 0 l 309 1126 l 669 312 l 1041 1126 l 1239 0 l 1077 0 l 976 632 l 666 -48 l 365 633 l 252 0 l 89 0 z "},"N":{"ha":1173,"x_min":125,"x_max":1047,"o":"m 125 0 l 125 1118 l 889 319 l 889 1047 l 1047 1047 l 1047 -64 l 283 733 l 283 0 l 125 0 z "},"O":{"ha":1241,"x_min":73,"x_max":1168,"o":"m 73 528 q 235 908 73 749 q 623 1067 397 1067 q 1007 907 847 1067 q 1168 522 1168 747 q 1006 139 1168 296 q 615 -19 844 -19 q 251 121 412 -19 q 73 528 73 277 m 233 526 q 349 241 233 353 q 617 129 465 129 q 895 243 782 129 q 1008 524 1008 358 q 897 804 1008 691 q 621 918 785 918 q 345 804 458 918 q 233 526 233 692 z "},"P":{"ha":750,"x_min":125,"x_max":713,"o":"m 283 425 l 283 0 l 125 0 l 125 1047 l 304 1047 q 503 1029 436 1047 q 623 960 571 1010 q 713 737 713 871 q 616 509 713 593 q 357 425 520 425 l 283 425 m 283 572 l 342 572 q 560 739 560 572 q 336 901 560 901 l 283 901 l 283 572 z "},"Q":{"ha":1241,"x_min":73,"x_max":1191,"o":"m 1191 -19 l 992 -19 l 910 65 q 618 -19 779 -19 q 249 122 410 -19 q 73 519 73 277 q 239 913 73 755 q 621 1067 401 1067 q 978 932 820 1067 q 1168 511 1168 771 q 1018 150 1168 308 l 1191 -19 m 756 414 l 908 263 q 1008 522 1008 368 q 897 804 1008 690 q 618 918 785 918 q 342 804 450 918 q 233 517 233 691 q 345 240 233 348 q 613 129 463 129 q 798 176 715 129 l 552 414 l 756 414 z "},"R":{"ha":836,"x_min":125,"x_max":804,"o":"m 480 446 l 804 0 l 611 0 l 312 429 l 283 429 l 283 0 l 125 0 l 125 1047 l 311 1047 q 610 969 518 1047 q 712 740 712 882 q 648 549 712 629 q 480 446 585 469 m 283 566 l 334 566 q 558 738 558 566 q 340 899 558 899 l 283 899 l 283 566 z "},"S":{"ha":810,"x_min":73,"x_max":745,"o":"m 718 891 l 589 815 q 521 897 553 878 q 433 918 487 918 q 324 881 368 918 q 281 789 281 844 q 395 665 281 712 l 499 623 q 686 497 627 571 q 745 315 745 422 q 648 76 745 170 q 408 -19 551 -19 q 182 62 271 -19 q 73 289 95 142 l 233 324 q 271 197 244 232 q 414 129 320 129 q 536 178 488 129 q 585 304 585 228 q 577 360 585 334 q 550 407 568 385 q 504 447 532 428 q 436 482 475 465 l 335 524 q 120 790 120 615 q 210 987 120 908 q 435 1067 300 1067 q 718 891 616 1067 z "},"T":{"ha":670,"x_min":16,"x_max":654,"o":"m 414 899 l 414 0 l 256 0 l 256 899 l 16 899 l 16 1047 l 654 1047 l 654 899 l 414 899 z "},"U":{"ha":1026,"x_min":125,"x_max":901,"o":"m 283 1047 l 283 416 q 328 219 283 281 q 513 129 393 129 q 699 219 633 129 q 743 416 743 279 l 743 1047 l 901 1047 l 901 373 q 798 100 901 208 q 513 -19 682 -19 q 229 100 344 -19 q 125 373 125 208 l 125 1047 l 283 1047 z "},"V":{"ha":939,"x_min":5,"x_max":935,"o":"m 178 1047 l 468 321 l 762 1047 l 935 1047 l 465 -79 l 5 1047 l 178 1047 z "},"W":{"ha":1473,"x_min":5,"x_max":1468,"o":"m 177 1047 l 450 347 l 734 1098 l 1007 347 l 1297 1047 l 1468 1047 l 1000 -66 l 731 675 l 450 -67 l 5 1047 l 177 1047 z "},"X":{"ha":858,"x_min":16,"x_max":842,"o":"m 345 547 l 56 1047 l 236 1047 l 436 692 l 646 1047 l 827 1047 l 526 547 l 842 0 l 665 0 l 433 401 l 195 0 l 16 0 l 345 547 z "},"Y":{"ha":833,"x_min":-5,"x_max":838,"o":"m 337 452 l -5 1047 l 177 1047 l 416 629 l 656 1047 l 838 1047 l 495 452 l 495 0 l 337 0 l 337 452 z "},"Z":{"ha":868,"x_min":47,"x_max":821,"o":"m 307 149 l 809 149 l 809 0 l 47 0 l 561 899 l 131 899 l 131 1047 l 821 1047 l 307 149 z "},"[":{"ha":496,"x_min":136,"x_max":423,"o":"m 292 1002 l 292 -134 l 423 -134 l 423 -278 l 136 -278 l 136 1145 l 423 1145 l 423 1002 l 292 1002 z "},"\\":{"ha":720,"x_min":5,"x_max":730,"o":"m 132 1157 l 730 -230 l 606 -286 l 5 1101 l 132 1157 z "},"]":{"ha":496,"x_min":73,"x_max":360,"o":"m 205 -134 l 205 1002 l 73 1002 l 73 1145 l 360 1145 l 360 -278 l 73 -278 l 73 -134 l 205 -134 z "},"^":{"ha":785,"x_min":24,"x_max":762,"o":"m 191 551 l 24 551 l 290 1052 l 496 1052 l 762 551 l 595 551 l 393 927 l 191 551 z "},"_":{"ha":785,"x_min":0,"x_max":785,"o":"m 0 -87 l 785 -87 l 785 -230 l 0 -230 l 0 -87 z "},"`":{"ha":785,"x_min":134,"x_max":464,"o":"m 134 986 l 277 1061 l 464 814 l 380 762 l 134 986 z "},"a":{"ha":833,"x_min":65,"x_max":736,"o":"m 583 661 l 736 661 l 736 0 l 583 0 l 583 69 q 380 -19 489 -19 q 154 80 243 -19 q 65 332 65 181 q 154 580 65 481 q 376 679 243 679 q 583 584 492 679 l 583 661 m 221 332 q 272 178 221 237 q 404 117 324 117 q 541 176 488 117 q 593 329 593 236 q 541 482 593 422 q 405 541 488 541 q 273 481 326 541 q 221 332 221 421 z "},"b":{"ha":833,"x_min":96,"x_max":768,"o":"m 249 1145 l 249 584 q 456 679 340 679 q 679 579 590 679 q 768 332 768 480 q 678 80 768 180 q 454 -19 589 -19 q 249 69 339 -19 l 249 0 l 96 0 l 96 1145 l 249 1145 m 612 326 q 560 480 612 420 q 429 541 508 541 q 292 482 345 541 q 240 330 240 424 q 292 176 240 234 q 427 117 343 117 q 559 176 507 117 q 612 326 612 236 z "},"c":{"ha":662,"x_min":65,"x_max":610,"o":"m 610 632 l 610 429 q 517 517 558 493 q 421 541 476 541 q 278 481 335 541 q 221 330 221 420 q 276 177 221 237 q 418 117 332 117 q 515 141 473 117 q 610 231 555 164 l 610 29 q 425 -19 517 -19 q 168 80 271 -19 q 65 328 65 180 q 170 577 65 475 q 426 679 274 679 q 610 632 524 679 z "},"d":{"ha":833,"x_min":65,"x_max":736,"o":"m 583 1145 l 736 1145 l 736 0 l 583 0 l 583 69 q 379 -19 493 -19 q 154 80 243 -19 q 65 332 65 181 q 154 579 65 480 q 376 679 242 679 q 583 584 492 679 l 583 1145 m 221 332 q 272 178 221 237 q 404 117 324 117 q 541 176 488 117 q 593 329 593 236 q 541 482 593 422 q 405 541 488 541 q 273 481 326 541 q 221 332 221 421 z "},"e":{"ha":768,"x_min":65,"x_max":704,"o":"m 698 294 l 224 294 q 277 165 231 213 q 397 117 324 117 q 492 144 454 117 q 575 245 528 172 l 704 173 q 641 86 674 122 q 570 26 608 50 q 488 -8 532 3 q 392 -19 444 -19 q 155 76 244 -19 q 65 330 65 172 q 152 583 65 486 q 384 679 239 679 q 614 586 530 679 q 699 330 699 494 l 698 294 m 541 419 q 387 541 509 541 q 335 533 359 541 q 291 508 311 524 q 256 470 271 492 q 235 419 242 448 l 541 419 z "},"f":{"ha":412,"x_min":47,"x_max":420,"o":"m 254 518 l 254 0 l 101 0 l 101 518 l 47 518 l 47 661 l 101 661 l 101 916 q 144 1092 101 1040 q 318 1164 204 1164 q 420 1140 359 1164 l 420 984 l 405 992 q 323 1017 355 1017 q 269 988 283 1017 q 254 878 254 960 l 254 661 l 420 661 l 420 518 l 254 518 z "},"g":{"ha":831,"x_min":65,"x_max":735,"o":"m 735 16 q 732 -67 735 -31 q 724 -130 729 -102 q 660 -258 707 -204 q 414 -361 570 -361 q 196 -290 281 -361 q 94 -87 108 -216 l 248 -87 q 277 -162 256 -136 q 415 -224 324 -224 q 583 -18 583 -224 l 583 74 q 373 -19 492 -19 q 152 79 238 -19 q 65 326 65 178 q 146 572 65 471 q 375 679 233 679 q 583 586 500 679 l 583 661 l 735 661 l 735 16 m 589 329 q 537 483 589 425 q 404 542 485 542 q 267 477 317 542 q 221 328 221 420 q 267 180 221 238 q 404 117 316 117 q 542 181 491 117 q 589 329 589 239 z "},"h":{"ha":762,"x_min":96,"x_max":665,"o":"m 96 1145 l 249 1145 l 249 606 q 429 679 330 679 q 608 606 541 679 q 665 405 665 543 l 665 0 l 512 0 l 512 391 q 484 506 512 470 q 393 541 456 541 q 281 492 313 541 q 249 319 249 441 l 249 0 l 96 0 l 96 1145 z "},"i":{"ha":346,"x_min":73,"x_max":272,"o":"m 249 661 l 249 0 l 96 0 l 96 661 l 249 661 m 73 935 q 102 1004 73 975 q 172 1034 132 1034 q 243 1004 214 1034 q 272 935 272 976 q 243 864 272 893 q 173 835 214 835 q 102 864 132 835 q 73 935 73 893 z "},"j":{"ha":346,"x_min":73,"x_max":272,"o":"m 249 661 l 249 -359 l 96 -359 l 96 661 l 249 661 m 73 935 q 102 1004 73 975 q 172 1034 132 1034 q 243 1004 214 1034 q 272 935 272 976 q 243 864 272 893 q 173 835 214 835 q 102 864 132 835 q 73 935 73 893 z "},"k":{"ha":692,"x_min":96,"x_max":690,"o":"m 249 1145 l 249 447 l 464 661 l 669 661 l 382 383 l 690 0 l 492 0 l 273 279 l 249 254 l 249 0 l 96 0 l 96 1145 l 249 1145 z "},"l":{"ha":346,"x_min":96,"x_max":249,"o":"m 249 1145 l 249 0 l 96 0 l 96 1145 l 249 1145 z "},"m":{"ha":1099,"x_min":96,"x_max":1002,"o":"m 96 661 l 249 661 l 249 600 q 324 662 293 646 q 408 679 357 679 q 585 581 519 679 q 779 679 656 679 q 1002 408 1002 679 l 1002 0 l 849 0 l 849 367 q 826 501 849 462 q 748 541 802 541 q 656 494 685 541 q 627 341 627 446 l 627 0 l 474 0 l 474 365 q 372 541 474 541 q 278 493 308 541 q 249 341 249 445 l 249 0 l 96 0 l 96 661 z "},"n":{"ha":762,"x_min":96,"x_max":665,"o":"m 96 661 l 250 661 l 250 600 q 430 679 330 679 q 610 606 545 679 q 665 405 665 545 l 665 0 l 512 0 l 512 369 q 485 504 512 467 q 389 542 458 542 q 281 492 313 542 q 250 319 250 442 l 250 0 l 96 0 l 96 661 z "},"o":{"ha":835,"x_min":65,"x_max":770,"o":"m 65 335 q 168 578 65 478 q 417 679 270 679 q 668 578 565 679 q 770 330 770 477 q 667 81 770 181 q 414 -19 564 -19 q 165 83 266 -19 q 65 335 65 183 m 221 332 q 274 176 221 233 q 417 117 328 117 q 560 175 507 117 q 614 329 614 233 q 560 483 614 425 q 417 541 506 541 q 275 483 330 541 q 221 332 221 425 z "},"p":{"ha":833,"x_min":96,"x_max":768,"o":"m 249 -359 l 96 -359 l 96 661 l 249 661 l 249 589 q 454 679 339 679 q 678 578 590 679 q 768 327 768 479 q 679 79 768 178 q 456 -19 591 -19 q 249 74 340 -19 l 249 -359 m 612 326 q 560 481 612 421 q 429 541 508 541 q 292 483 345 541 q 240 330 240 425 q 292 176 240 237 q 428 117 344 117 q 559 177 507 117 q 612 326 612 237 z "},"q":{"ha":833,"x_min":65,"x_max":736,"o":"m 583 -359 l 583 74 q 376 -19 492 -19 q 154 79 242 -19 q 65 327 65 178 q 154 578 65 477 q 378 679 243 679 q 583 589 493 679 l 583 661 l 736 661 l 736 -359 l 583 -359 m 221 334 q 273 178 221 238 q 404 117 324 117 q 540 176 488 117 q 593 329 593 235 q 541 482 593 422 q 405 541 488 541 q 273 481 326 541 q 221 334 221 421 z "},"r":{"ha":519,"x_min":96,"x_max":528,"o":"m 96 661 l 249 661 l 249 602 q 323 662 291 646 q 402 679 357 679 q 528 640 463 679 l 458 500 q 374 531 415 531 q 249 342 249 531 l 249 0 l 96 0 l 96 661 z "},"s":{"ha":564,"x_min":52,"x_max":523,"o":"m 480 548 l 354 481 q 280 542 324 542 q 244 528 259 542 q 229 492 229 514 q 317 417 229 454 q 481 321 439 365 q 523 202 523 277 q 452 42 523 106 q 287 -19 384 -19 q 52 143 121 -19 l 182 203 q 223 143 209 156 q 290 117 251 117 q 367 188 367 117 q 307 264 367 229 q 261 286 284 275 q 214 309 238 297 q 121 374 148 341 q 86 480 86 415 q 145 623 86 566 q 292 679 205 679 q 480 548 418 679 z "},"t":{"ha":380,"x_min":36,"x_max":372,"o":"m 254 518 l 254 0 l 101 0 l 101 518 l 36 518 l 36 661 l 101 661 l 101 903 l 254 903 l 254 661 l 372 661 l 372 518 l 254 518 z "},"u":{"ha":757,"x_min":96,"x_max":661,"o":"m 249 661 l 249 281 q 378 117 249 117 q 508 281 508 117 l 508 661 l 661 661 l 661 278 q 641 141 661 199 q 575 48 622 90 q 378 -19 498 -19 q 182 48 260 -19 q 115 141 135 90 q 96 278 96 187 l 96 661 l 249 661 z "},"v":{"ha":698,"x_min":7,"x_max":691,"o":"m 178 661 l 349 290 l 519 661 l 691 661 l 348 -45 l 7 661 l 178 661 z "},"w":{"ha":1075,"x_min":7,"x_max":1068,"o":"m 179 661 l 352 283 l 538 721 l 726 283 l 897 661 l 1068 661 l 722 -50 l 538 376 l 353 -50 l 7 661 l 179 661 z "},"x":{"ha":775,"x_min":7,"x_max":768,"o":"m 301 357 l 64 661 l 245 661 l 393 468 l 543 661 l 730 661 l 486 357 l 768 0 l 587 0 l 393 247 l 194 0 l 7 0 l 301 357 z "},"y":{"ha":755,"x_min":7,"x_max":747,"o":"m 304 123 l 7 661 l 184 661 l 387 281 l 575 661 l 747 661 l 221 -359 l 47 -359 l 304 123 z "},"z":{"ha":755,"x_min":13,"x_max":743,"o":"m 315 144 l 708 144 l 708 0 l 13 0 l 441 518 l 104 518 l 104 661 l 743 661 l 315 144 z "},"{":{"ha":496,"x_min":64,"x_max":426,"o":"m 426 1018 l 407 1018 q 328 994 346 1018 q 309 895 309 970 l 309 623 q 290 505 309 551 q 214 433 270 466 q 309 282 309 376 l 309 -25 q 328 -127 309 -102 q 407 -151 347 -151 l 426 -151 l 426 -288 l 387 -288 l 339 -290 q 196 -237 239 -290 q 153 -60 153 -183 l 153 273 q 129 336 153 309 q 64 373 105 363 l 64 504 q 132 545 112 515 q 153 633 153 574 l 153 936 q 196 1104 153 1052 q 334 1157 239 1157 l 387 1156 l 426 1154 l 426 1018 z "},"|":{"ha":785,"x_min":314,"x_max":471,"o":"m 314 1047 l 471 1047 l 471 -261 l 314 -261 l 314 1047 z "},"}":{"ha":496,"x_min":71,"x_max":433,"o":"m 71 -151 l 90 -151 q 169 -127 151 -151 q 188 -28 188 -104 l 188 243 q 208 361 188 316 q 283 434 227 401 q 188 584 188 491 l 188 892 q 169 994 188 971 q 90 1019 149 1019 l 71 1018 l 71 1155 l 110 1155 l 157 1158 q 300 1104 257 1158 q 345 928 345 1050 l 345 593 q 368 530 345 557 q 433 493 392 503 l 433 363 q 365 321 385 351 q 345 233 345 292 l 345 -69 q 301 -238 345 -185 q 163 -290 258 -290 l 111 -288 l 71 -288 l 71 -151 z "},"~":{"ha":1047,"x_min":144,"x_max":903,"o":"m 144 956 l 155 979 q 249 1114 199 1074 q 368 1155 298 1155 q 540 1107 438 1155 q 684 1064 631 1064 q 762 1091 741 1064 l 803 1143 q 831 1162 818 1162 q 903 1104 862 1162 q 798 956 851 1001 q 669 912 743 912 q 492 965 608 912 q 355 1003 404 1003 q 315 993 338 1003 q 284 973 291 983 l 241 913 q 214 895 227 895 q 144 956 184 895 z "}," ":{"ha":429,"x_min":0,"x_max":0,"o":""},"¡":{"ha":460,"x_min":136,"x_max":325,"o":"m 325 730 q 297 664 325 692 q 231 637 270 637 q 164 665 192 637 q 136 732 136 692 q 163 798 136 771 q 231 826 191 826 q 297 798 269 826 q 325 730 325 770 m 307 573 l 307 -240 l 154 -240 l 154 573 l 307 573 z "},"¢":{"ha":857,"x_min":127,"x_max":667,"o":"m 512 1003 l 512 871 l 518 871 q 667 827 601 861 l 667 623 q 616 674 640 654 q 571 707 592 695 q 474 730 530 730 q 333 671 388 730 q 279 522 279 613 q 332 376 279 431 q 474 320 386 320 q 575 344 535 320 q 667 433 616 368 l 667 221 q 588 193 627 204 q 512 177 549 182 l 512 42 l 396 42 l 396 183 q 329 207 357 195 q 279 233 300 220 q 201 307 235 263 q 127 524 127 399 q 396 869 127 783 l 396 1003 l 512 1003 z "},"£":{"ha":857,"x_min":24,"x_max":832,"o":"m 352 516 l 556 516 l 556 406 l 397 406 q 415 309 415 336 q 395 201 415 278 l 406 198 q 445 184 427 191 q 478 172 463 178 q 599 139 561 139 q 650 159 628 139 q 675 190 661 170 q 706 239 689 210 l 832 163 q 733 26 787 66 q 600 -14 679 -14 q 427 26 543 -14 q 268 69 313 69 q 209 52 231 69 q 160 -23 187 34 l 24 45 q 125 175 87 146 q 241 218 168 210 q 257 315 257 271 q 233 406 257 361 l 54 406 l 54 516 l 177 516 q 111 740 111 647 q 213 970 111 875 q 461 1065 316 1065 q 701 969 607 1065 q 795 725 795 875 l 640 667 q 616 826 640 781 q 460 916 572 916 q 326 863 378 916 q 273 727 273 810 q 345 529 273 658 q 348 524 346 527 q 352 516 349 521 z "},"¤":{"ha":857,"x_min":-37,"x_max":895,"o":"m -34 204 l 120 359 q 45 579 45 462 q 120 798 45 690 l -37 954 l 50 1040 l 206 884 q 430 960 315 960 q 650 886 543 960 l 805 1040 l 891 953 l 737 800 q 812 578 812 688 q 739 360 812 467 l 895 204 l 809 118 l 654 273 q 431 197 548 197 q 206 271 319 197 l 52 118 l -34 204 m 669 574 q 599 748 669 678 q 429 819 530 819 q 259 749 330 819 q 189 578 189 679 q 259 408 189 477 q 429 337 330 337 q 598 407 528 337 q 669 574 669 477 z "},"¥":{"ha":857,"x_min":27,"x_max":829,"o":"m 340 477 l 277 591 l 54 591 l 54 703 l 216 703 l 27 1047 l 199 1047 l 427 629 l 658 1047 l 829 1047 l 640 703 l 803 703 l 803 591 l 578 591 l 515 477 l 803 477 l 803 366 l 501 366 l 501 0 l 354 0 l 354 366 l 54 366 l 54 477 l 340 477 z "},"¦":{"ha":785,"x_min":314,"x_max":471,"o":"m 314 1047 l 471 1047 l 471 514 l 314 514 l 314 1047 m 314 241 l 471 241 l 471 -261 l 314 -261 l 314 241 z "},"§":{"ha":857,"x_min":113,"x_max":744,"o":"m 113 14 l 262 14 q 418 -147 281 -147 q 521 -110 484 -147 q 558 -5 558 -73 q 526 87 558 58 q 373 164 493 118 q 178 277 229 220 q 127 437 127 334 q 275 674 127 608 q 153 878 153 747 q 241 1075 153 992 q 452 1157 329 1157 q 662 1067 579 1157 q 744 838 744 979 l 599 838 q 453 1010 587 1010 q 346 970 388 1010 q 304 868 304 931 q 415 743 304 783 l 484 719 q 688 606 633 665 q 743 441 743 547 q 709 304 743 360 q 596 199 676 248 q 685 110 659 156 q 711 -7 711 62 q 627 -212 711 -132 q 416 -292 543 -292 q 265 -257 333 -292 q 159 -162 197 -223 q 113 14 119 -100 m 276 440 q 322 330 276 376 q 435 285 369 285 q 547 330 500 285 q 593 438 593 374 q 547 547 593 503 q 435 592 500 592 q 323 547 368 592 q 276 440 276 502 z "},"¨":{"ha":785,"x_min":154,"x_max":631,"o":"m 154 871 q 182 938 154 910 q 251 966 211 966 q 319 938 291 966 q 348 870 348 910 q 319 801 348 829 q 251 773 290 773 q 182 802 210 773 q 154 871 154 831 m 437 871 q 466 938 437 910 q 534 966 495 966 q 603 938 575 966 q 631 870 631 910 q 603 801 631 829 q 534 773 573 773 q 466 802 494 773 q 437 871 437 830 z "},"©":{"ha":1191,"x_min":52,"x_max":1139,"o":"m 804 801 l 804 664 l 787 677 q 619 742 705 742 q 465 678 528 742 q 401 522 401 614 q 465 368 401 429 q 620 305 529 305 q 787 372 703 305 l 804 385 l 804 247 q 618 198 715 198 q 380 292 478 198 q 281 522 281 387 q 382 753 281 658 q 625 849 482 849 q 799 804 715 849 l 804 801 m 1139 525 q 980 138 1139 298 q 596 -21 821 -21 q 211 139 371 -21 q 52 526 52 298 q 104 756 52 652 q 249 943 156 867 q 590 1069 401 1069 q 817 1021 715 1069 q 1050 821 962 958 q 1139 525 1139 684 m 592 989 q 273 852 406 989 q 140 526 140 715 q 273 195 140 332 q 596 58 406 58 q 918 194 784 58 q 1050 525 1050 331 q 998 739 1050 629 q 861 904 947 843 q 592 989 741 989 z "},"ª":{"ha":568,"x_min":64,"x_max":485,"o":"m 385 1027 l 485 1027 l 485 628 l 385 628 l 385 667 q 262 616 326 616 q 120 677 176 616 q 64 829 64 737 q 119 978 64 918 q 259 1038 175 1038 q 385 985 330 1038 l 385 1027 m 165 829 q 196 738 165 773 q 276 703 227 703 q 359 736 327 703 q 391 827 391 772 q 359 916 391 880 q 277 951 327 951 q 197 916 228 951 q 165 829 165 882 z "},"«":{"ha":800,"x_min":63,"x_max":716,"o":"m 513 336 l 716 76 l 614 1 l 353 335 l 614 681 l 715 606 l 513 336 m 222 336 l 426 76 l 324 1 l 63 335 l 324 681 l 425 606 l 222 336 z "},"¬":{"ha":785,"x_min":52,"x_max":733,"o":"m 576 0 l 576 273 l 52 273 l 52 419 l 733 419 l 733 0 l 576 0 z "},"­":{"ha":302,"x_min":0,"x_max":302,"o":"m 0 402 l 302 402 l 302 269 l 0 269 l 0 402 z "},"®":{"ha":1191,"x_min":52,"x_max":1139,"o":"m 649 472 l 853 210 l 707 210 l 520 458 l 520 210 l 400 210 l 400 838 l 526 838 q 718 791 657 838 q 785 649 785 736 q 749 540 785 590 q 657 475 713 491 l 649 472 m 519 559 l 540 559 q 669 648 669 559 q 544 730 669 730 l 519 730 l 519 559 m 1139 525 q 980 138 1139 298 q 596 -21 821 -21 q 211 139 371 -21 q 52 526 52 298 q 104 756 52 652 q 249 943 156 867 q 590 1069 401 1069 q 817 1021 715 1069 q 1050 821 962 958 q 1139 525 1139 684 m 592 989 q 273 852 406 989 q 140 526 140 715 q 273 195 140 332 q 596 58 406 58 q 918 194 784 58 q 1050 525 1050 331 q 998 739 1050 629 q 861 904 947 843 q 592 989 741 989 z "},"¯":{"ha":785,"x_min":155,"x_max":631,"o":"m 155 911 l 631 911 l 631 789 l 155 789 l 155 911 z "},"°":{"ha":890,"x_min":236,"x_max":655,"o":"m 448 1063 q 594 1001 533 1063 q 655 854 655 940 q 593 705 655 767 q 446 644 532 644 q 297 705 359 644 q 236 853 236 767 q 298 1002 236 942 q 448 1063 359 1063 m 447 958 q 368 928 400 958 q 336 852 336 897 q 368 772 336 805 q 446 739 401 739 q 523 772 492 739 q 555 852 555 805 q 524 927 555 897 q 447 958 492 958 z "},"±":{"ha":857,"x_min":67,"x_max":789,"o":"m 67 481 l 67 608 l 366 608 l 366 901 l 491 901 l 491 608 l 789 608 l 789 481 l 491 481 l 491 210 l 366 210 l 366 481 l 67 481 m 67 0 l 67 125 l 789 125 l 789 0 l 67 0 z "},"²":{"ha":608,"x_min":52,"x_max":498,"o":"m 267 517 l 498 517 l 498 419 l 52 419 l 281 687 q 335 753 314 726 q 368 800 357 781 q 392 867 392 838 q 362 936 392 908 q 288 964 332 964 q 182 852 195 964 l 75 852 q 286 1059 100 1059 q 435 1003 376 1059 q 496 866 496 948 q 469 766 496 816 q 428 705 455 741 q 358 622 401 669 l 267 517 z "},"³":{"ha":608,"x_min":69,"x_max":487,"o":"m 253 706 l 253 795 q 338 808 318 795 q 374 878 374 829 q 348 939 374 916 q 281 962 322 962 q 192 879 207 962 l 85 879 q 148 1015 101 972 q 283 1058 195 1058 q 423 1008 370 1058 q 478 882 478 958 q 412 750 478 798 q 487 603 487 704 q 427 463 487 517 q 275 408 367 408 q 69 597 89 408 l 173 597 q 281 504 189 504 q 353 532 325 504 q 382 607 382 562 q 352 683 382 660 q 253 706 322 706 z "},"´":{"ha":785,"x_min":322,"x_max":652,"o":"m 652 986 l 406 762 l 322 814 l 509 1061 l 652 986 z "},"µ":{"ha":757,"x_min":96,"x_max":661,"o":"m 249 -359 l 96 -359 l 96 661 l 249 661 l 249 278 q 378 117 249 117 q 508 281 508 117 l 508 661 l 661 661 l 661 278 q 641 141 661 199 q 574 48 622 90 q 383 -19 497 -19 q 239 16 304 -19 l 249 -359 z "},"¶":{"ha":857,"x_min":25,"x_max":817,"o":"m 428 -149 l 283 -149 l 283 526 l 265 525 q 92 595 158 525 q 25 781 25 668 q 332 1047 25 1047 l 817 1047 l 730 901 l 689 901 l 689 -149 l 545 -149 l 545 901 l 428 901 l 428 -149 z "},"·":{"ha":429,"x_min":120,"x_max":309,"o":"m 120 524 q 148 590 120 562 q 214 618 176 618 q 281 590 253 618 q 309 524 309 562 q 281 456 309 484 q 214 429 254 429 q 147 456 174 429 q 120 524 120 484 z "},"¸":{"ha":785,"x_min":273,"x_max":534,"o":"m 534 -135 l 372 -342 l 273 -293 l 408 -83 l 534 -135 z "},"¹":{"ha":608,"x_min":153,"x_max":374,"o":"m 267 950 l 153 950 l 212 1047 l 374 1047 l 374 419 l 267 419 l 267 950 z "},"º":{"ha":570,"x_min":64,"x_max":506,"o":"m 64 831 q 128 977 64 917 q 284 1038 193 1038 q 441 977 377 1038 q 506 827 506 916 q 441 677 506 738 q 283 616 377 616 q 127 678 189 616 q 64 831 64 740 m 165 829 q 197 737 165 771 q 284 703 229 703 q 372 736 339 703 q 404 827 404 770 q 396 878 404 855 q 372 917 387 901 q 334 942 356 933 q 286 951 312 951 q 236 942 258 951 q 198 917 214 933 q 174 879 182 901 q 165 829 165 856 z "},"»":{"ha":800,"x_min":84,"x_max":737,"o":"m 288 336 l 84 606 l 186 681 l 447 335 l 185 1 l 84 76 l 288 336 m 578 336 l 375 606 l 476 681 l 737 335 l 476 1 l 374 76 l 578 336 z "},"¼":{"ha":1343,"x_min":121,"x_max":1301,"o":"m 236 950 l 121 950 l 181 1047 l 342 1047 l 342 419 l 236 419 l 236 950 m 935 1065 l 1009 1023 l 410 -17 l 335 28 l 935 1065 m 1234 182 l 1301 182 l 1301 88 l 1234 88 l 1234 0 l 1126 0 l 1126 88 l 808 88 l 1234 685 l 1234 182 m 1126 182 l 1126 368 l 995 182 l 1126 182 z "},"½":{"ha":1343,"x_min":121,"x_max":1266,"o":"m 236 950 l 121 950 l 181 1047 l 342 1047 l 342 419 l 236 419 l 236 950 m 935 1065 l 1009 1023 l 410 -17 l 335 28 l 935 1065 m 1034 98 l 1266 98 l 1266 0 l 821 0 l 1049 269 q 1104 336 1082 308 q 1137 382 1126 364 q 1160 448 1160 417 q 1131 515 1160 488 q 1057 543 1101 543 q 950 433 963 543 l 844 433 q 1054 640 868 640 q 1204 584 1144 640 q 1265 448 1265 529 q 1236 347 1265 396 q 1195 287 1223 323 q 1126 203 1168 251 l 1034 98 z "},"¾":{"ha":1343,"x_min":37,"x_max":1301,"o":"m 221 706 l 221 795 q 307 808 286 795 q 342 878 342 829 q 316 939 342 916 q 249 962 290 962 q 160 879 175 962 l 54 879 q 116 1015 69 972 q 251 1058 163 1058 q 391 1008 338 1058 q 446 882 446 958 q 380 750 446 798 q 455 603 455 704 q 395 463 455 517 q 243 408 335 408 q 37 597 57 408 l 141 597 q 249 504 157 504 q 321 532 293 504 q 350 607 350 562 q 320 683 350 660 q 221 706 290 706 m 935 1065 l 1008 1023 l 409 -17 l 334 28 l 935 1065 m 1234 182 l 1301 182 l 1301 88 l 1234 88 l 1234 0 l 1126 0 l 1126 88 l 808 88 l 1234 685 l 1234 182 m 1126 182 l 1126 368 l 994 182 l 1126 182 z "},"¿":{"ha":680,"x_min":84,"x_max":597,"o":"m 262 317 l 109 317 q 163 484 109 419 q 346 566 235 566 q 509 497 442 566 q 575 330 575 429 q 533 203 575 252 q 391 119 492 156 q 264 61 292 83 q 238 -7 238 39 q 267 -82 238 -54 q 342 -109 295 -109 q 416 -82 389 -109 q 444 -7 444 -54 q 436 50 444 12 l 594 50 q 596 18 595 32 q 597 -5 597 5 q 525 -184 597 -113 q 343 -255 452 -255 q 158 -183 232 -255 q 84 -3 84 -111 q 158 174 84 106 q 334 257 205 218 q 422 342 422 283 q 399 399 422 376 q 342 422 376 422 q 262 317 268 422 m 435 730 q 407 664 435 692 q 340 637 380 637 q 274 665 302 637 q 246 732 246 692 q 274 798 246 770 q 340 826 302 826 q 407 798 379 826 q 435 730 435 770 z "},"À":{"ha":1029,"x_min":5,"x_max":1023,"o":"m 741 254 l 292 254 l 176 0 l 5 0 l 524 1113 l 1023 0 l 850 0 l 741 254 m 676 403 l 521 759 l 358 403 l 676 403 m 276 1329 l 410 1423 l 627 1204 l 552 1141 l 276 1329 z "},"Á":{"ha":1029,"x_min":5,"x_max":1023,"o":"m 741 254 l 292 254 l 176 0 l 5 0 l 524 1113 l 1023 0 l 850 0 l 741 254 m 676 403 l 521 759 l 358 403 l 676 403 m 764 1329 l 487 1141 l 412 1204 l 629 1423 l 764 1329 z "},"Â":{"ha":1029,"x_min":5,"x_max":1023,"o":"m 741 254 l 292 254 l 176 0 l 5 0 l 524 1113 l 1023 0 l 850 0 l 741 254 m 676 403 l 521 759 l 358 403 l 676 403 m 286 1222 l 524 1440 l 765 1222 l 661 1141 l 524 1270 l 389 1141 l 286 1222 z "},"Ã":{"ha":1029,"x_min":5,"x_max":1023,"o":"m 741 254 l 292 254 l 176 0 l 5 0 l 524 1113 l 1023 0 l 850 0 l 741 254 m 676 403 l 521 759 l 358 403 l 676 403 m 334 1152 l 245 1227 l 264 1255 q 301 1301 283 1282 q 337 1332 319 1320 q 375 1349 355 1343 q 418 1354 395 1354 q 541 1318 471 1354 q 631 1282 611 1282 q 715 1356 669 1282 l 802 1284 q 625 1154 736 1154 q 501 1192 587 1154 q 409 1223 439 1223 q 334 1152 372 1223 z "},"Ä":{"ha":1029,"x_min":5,"x_max":1023,"o":"m 741 254 l 292 254 l 176 0 l 5 0 l 524 1113 l 1023 0 l 850 0 l 741 254 m 676 403 l 521 759 l 358 403 l 676 403 m 275 1251 q 304 1318 275 1290 q 372 1347 332 1347 q 440 1318 412 1347 q 469 1249 469 1290 q 440 1181 469 1209 q 372 1152 412 1152 q 303 1181 332 1152 q 275 1251 275 1211 m 580 1251 q 608 1318 580 1290 q 677 1347 637 1347 q 745 1318 717 1347 q 774 1249 774 1290 q 745 1181 774 1209 q 677 1152 717 1152 q 608 1181 636 1152 q 580 1251 580 1211 z "},"Å":{"ha":1029,"x_min":5,"x_max":1023,"o":"m 741 254 l 292 254 l 176 0 l 5 0 l 524 1113 l 1023 0 l 850 0 l 741 254 m 676 403 l 521 759 l 358 403 l 676 403 m 377 1293 q 420 1395 377 1352 q 524 1438 464 1438 q 629 1395 586 1438 q 672 1291 672 1352 q 629 1186 672 1230 q 525 1143 586 1143 q 420 1186 463 1143 q 377 1293 377 1230 m 458 1291 q 477 1243 458 1262 q 525 1223 496 1223 q 573 1243 553 1223 q 592 1291 592 1262 q 573 1338 592 1319 q 525 1358 553 1358 q 498 1352 511 1358 q 477 1338 486 1347 q 463 1316 468 1329 q 458 1291 458 1304 z "},"Æ":{"ha":1455,"x_min":16,"x_max":1438,"o":"m 748 250 l 303 250 l 189 0 l 16 0 l 519 1047 l 982 1047 l 1048 899 l 631 899 l 741 645 l 1147 645 l 1213 496 l 807 496 l 956 149 l 1375 149 l 1438 0 l 858 0 l 748 250 m 685 399 l 535 742 l 374 399 l 685 399 z "},"Ç":{"ha":973,"x_min":73,"x_max":899,"o":"m 899 991 l 899 804 q 616 918 762 918 q 344 802 454 918 q 233 520 233 687 q 344 242 233 355 q 616 129 455 129 q 758 156 700 129 q 826 193 791 170 q 899 248 861 216 l 899 58 q 614 -19 764 -19 q 231 138 390 -19 q 73 519 73 296 q 205 876 73 719 q 627 1067 368 1067 q 899 991 768 1067 m 685 -143 l 507 -352 l 408 -300 l 551 -83 l 685 -143 z "},"È":{"ha":785,"x_min":125,"x_max":703,"o":"m 703 899 l 283 899 l 283 647 l 691 647 l 691 498 l 283 498 l 283 149 l 703 149 l 703 0 l 125 0 l 125 1047 l 703 1047 l 703 899 m 208 1329 l 342 1423 l 559 1204 l 484 1141 l 208 1329 z "},"É":{"ha":785,"x_min":125,"x_max":703,"o":"m 703 899 l 283 899 l 283 647 l 691 647 l 691 498 l 283 498 l 283 149 l 703 149 l 703 0 l 125 0 l 125 1047 l 703 1047 l 703 899 m 652 1329 l 376 1141 l 300 1204 l 518 1423 l 652 1329 z "},"Ê":{"ha":785,"x_min":125,"x_max":703,"o":"m 703 899 l 283 899 l 283 647 l 691 647 l 691 498 l 283 498 l 283 149 l 703 149 l 703 0 l 125 0 l 125 1047 l 703 1047 l 703 899 m 176 1222 l 414 1440 l 656 1222 l 551 1141 l 414 1270 l 279 1141 l 176 1222 z "},"Ë":{"ha":785,"x_min":125,"x_max":703,"o":"m 703 899 l 283 899 l 283 647 l 691 647 l 691 498 l 283 498 l 283 149 l 703 149 l 703 0 l 125 0 l 125 1047 l 703 1047 l 703 899 m 170 1251 q 199 1318 170 1290 q 267 1347 227 1347 q 335 1318 307 1347 q 363 1249 363 1290 q 335 1181 363 1209 q 267 1152 307 1152 q 198 1181 227 1152 q 170 1251 170 1211 m 475 1251 q 503 1318 475 1290 q 572 1347 532 1347 q 640 1318 612 1347 q 669 1249 669 1290 q 640 1181 669 1209 q 572 1152 612 1152 q 503 1181 531 1152 q 475 1251 475 1211 z "},"Ì":{"ha":410,"x_min":-49,"x_max":286,"o":"m 283 1047 l 283 0 l 125 0 l 125 1047 l 283 1047 m -49 1329 l 79 1423 l 286 1204 l 211 1141 l -49 1329 z "},"Í":{"ha":410,"x_min":123,"x_max":459,"o":"m 283 1047 l 283 0 l 125 0 l 125 1047 l 283 1047 m 459 1329 l 199 1141 l 123 1204 l 330 1423 l 459 1329 z "},"Î":{"ha":410,"x_min":-35,"x_max":445,"o":"m 283 1047 l 283 0 l 125 0 l 125 1047 l 283 1047 m -35 1222 l 203 1440 l 445 1222 l 340 1141 l 203 1270 l 68 1141 l -35 1222 z "},"Ï":{"ha":410,"x_min":-20,"x_max":430,"o":"m 283 1047 l 283 0 l 125 0 l 125 1047 l 283 1047 m -20 1251 q 8 1318 -20 1289 q 77 1347 37 1347 q 145 1318 117 1347 q 174 1249 174 1290 q 145 1181 174 1209 q 77 1152 117 1152 q 8 1181 35 1152 q -20 1251 -20 1211 m 236 1251 q 264 1318 236 1290 q 333 1347 294 1347 q 401 1318 373 1347 q 430 1249 430 1290 q 401 1181 430 1209 q 333 1152 373 1152 q 264 1181 293 1152 q 236 1251 236 1209 z "},"Ð":{"ha":1008,"x_min":31,"x_max":935,"o":"m 125 0 l 125 477 l 31 477 l 31 612 l 125 612 l 125 1047 l 345 1047 q 595 1016 503 1047 q 773 912 693 985 q 935 524 935 764 q 766 133 935 282 q 589 29 682 58 q 342 0 502 0 l 125 0 m 283 149 l 355 149 q 532 171 461 149 q 659 245 602 194 q 776 523 776 352 q 661 803 776 696 q 355 899 557 899 l 283 899 l 283 612 l 509 612 l 509 477 l 283 477 l 283 149 z "},"Ñ":{"ha":1173,"x_min":125,"x_max":1047,"o":"m 125 0 l 125 1118 l 889 319 l 889 1047 l 1047 1047 l 1047 -64 l 283 733 l 283 0 l 125 0 m 393 1152 l 304 1227 l 324 1255 q 361 1301 343 1282 q 397 1332 378 1320 q 435 1349 415 1343 q 477 1354 454 1354 q 600 1318 530 1354 q 691 1282 671 1282 q 775 1356 729 1282 l 861 1284 q 685 1154 796 1154 q 561 1192 647 1154 q 469 1223 499 1223 q 393 1152 431 1223 z "},"Ò":{"ha":1241,"x_min":73,"x_max":1168,"o":"m 73 528 q 235 908 73 749 q 623 1067 397 1067 q 1007 907 847 1067 q 1168 522 1168 747 q 1006 139 1168 296 q 615 -19 844 -19 q 251 121 412 -19 q 73 528 73 277 m 233 526 q 349 241 233 353 q 617 129 465 129 q 895 243 782 129 q 1008 524 1008 358 q 897 804 1008 691 q 621 918 785 918 q 345 804 458 918 q 233 526 233 692 m 394 1329 l 528 1423 l 745 1204 l 670 1141 l 394 1329 z "},"Ó":{"ha":1241,"x_min":73,"x_max":1168,"o":"m 73 528 q 235 908 73 749 q 623 1067 397 1067 q 1007 907 847 1067 q 1168 522 1168 747 q 1006 139 1168 296 q 615 -19 844 -19 q 251 121 412 -19 q 73 528 73 277 m 233 526 q 349 241 233 353 q 617 129 465 129 q 895 243 782 129 q 1008 524 1008 358 q 897 804 1008 691 q 621 918 785 918 q 345 804 458 918 q 233 526 233 692 m 861 1329 l 585 1141 l 509 1204 l 727 1423 l 861 1329 z "},"Ô":{"ha":1241,"x_min":73,"x_max":1168,"o":"m 73 528 q 235 908 73 749 q 623 1067 397 1067 q 1007 907 847 1067 q 1168 522 1168 747 q 1006 139 1168 296 q 615 -19 844 -19 q 251 121 412 -19 q 73 528 73 277 m 233 526 q 349 241 233 353 q 617 129 465 129 q 895 243 782 129 q 1008 524 1008 358 q 897 804 1008 691 q 621 918 785 918 q 345 804 458 918 q 233 526 233 692 m 386 1222 l 624 1440 l 865 1222 l 761 1141 l 624 1270 l 489 1141 l 386 1222 z "},"Õ":{"ha":1241,"x_min":73,"x_max":1168,"o":"m 73 528 q 235 908 73 749 q 623 1067 397 1067 q 1007 907 847 1067 q 1168 522 1168 747 q 1006 139 1168 296 q 615 -19 844 -19 q 251 121 412 -19 q 73 528 73 277 m 233 526 q 349 241 233 353 q 617 129 465 129 q 895 243 782 129 q 1008 524 1008 358 q 897 804 1008 691 q 621 918 785 918 q 345 804 458 918 q 233 526 233 692 m 414 1152 l 326 1227 l 345 1255 q 382 1301 364 1282 q 418 1332 399 1320 q 456 1349 436 1343 q 498 1354 475 1354 q 621 1318 551 1354 q 712 1282 692 1282 q 796 1356 750 1282 l 882 1284 q 706 1154 817 1154 q 582 1192 668 1154 q 490 1223 520 1223 q 414 1152 452 1223 z "},"Ö":{"ha":1241,"x_min":73,"x_max":1168,"o":"m 73 528 q 235 908 73 749 q 623 1067 397 1067 q 1007 907 847 1067 q 1168 522 1168 747 q 1006 139 1168 296 q 615 -19 844 -19 q 251 121 412 -19 q 73 528 73 277 m 233 526 q 349 241 233 353 q 617 129 465 129 q 895 243 782 129 q 1008 524 1008 358 q 897 804 1008 691 q 621 918 785 918 q 345 804 458 918 q 233 526 233 692 m 373 1251 q 401 1318 373 1290 q 469 1347 430 1347 q 538 1318 510 1347 q 566 1249 566 1290 q 538 1181 566 1209 q 470 1152 510 1152 q 401 1181 429 1152 q 373 1251 373 1211 m 677 1251 q 706 1318 677 1290 q 774 1347 734 1347 q 843 1318 814 1347 q 871 1249 871 1290 q 843 1181 871 1209 q 774 1152 814 1152 q 705 1181 734 1152 q 677 1251 677 1211 z "},"×":{"ha":857,"x_min":119,"x_max":738,"o":"m 119 768 l 205 854 l 428 631 l 652 854 l 738 768 l 514 545 l 738 321 l 652 235 l 428 458 l 205 235 l 119 321 l 342 545 l 119 768 z "},"Ø":{"ha":1240,"x_min":73,"x_max":1166,"o":"m 950 957 l 1063 1072 l 1154 982 l 1042 867 q 1166 521 1166 713 q 1006 140 1166 298 q 620 -19 845 -19 q 273 101 432 -19 l 161 -11 l 74 78 l 183 191 q 73 519 73 337 q 239 912 73 754 q 624 1067 402 1067 q 950 957 800 1067 m 840 852 q 623 918 741 918 q 344 804 456 918 q 233 517 233 688 q 298 299 233 406 l 840 852 m 930 764 l 386 208 q 622 129 500 129 q 895 243 782 129 q 1007 523 1007 358 q 930 764 1007 652 z "},"Ù":{"ha":1026,"x_min":125,"x_max":901,"o":"m 283 1047 l 283 416 q 328 219 283 281 q 513 129 393 129 q 699 219 633 129 q 743 416 743 279 l 743 1047 l 901 1047 l 901 373 q 798 100 901 208 q 513 -19 682 -19 q 229 100 344 -19 q 125 373 125 208 l 125 1047 l 283 1047 m 284 1329 l 418 1423 l 635 1204 l 560 1141 l 284 1329 z "},"Ú":{"ha":1026,"x_min":125,"x_max":901,"o":"m 283 1047 l 283 416 q 328 219 283 281 q 513 129 393 129 q 699 219 633 129 q 743 416 743 279 l 743 1047 l 901 1047 l 901 373 q 798 100 901 208 q 513 -19 682 -19 q 229 100 344 -19 q 125 373 125 208 l 125 1047 l 283 1047 m 753 1329 l 476 1141 l 401 1204 l 618 1423 l 753 1329 z "},"Û":{"ha":1026,"x_min":125,"x_max":901,"o":"m 283 1047 l 283 416 q 328 219 283 281 q 513 129 393 129 q 699 219 633 129 q 743 416 743 279 l 743 1047 l 901 1047 l 901 373 q 798 100 901 208 q 513 -19 682 -19 q 229 100 344 -19 q 125 373 125 208 l 125 1047 l 283 1047 m 273 1222 l 511 1440 l 753 1222 l 648 1141 l 511 1270 l 376 1141 l 273 1222 z "},"Ü":{"ha":1026,"x_min":125,"x_max":901,"o":"m 283 1047 l 283 416 q 328 219 283 281 q 513 129 393 129 q 699 219 633 129 q 743 416 743 279 l 743 1047 l 901 1047 l 901 373 q 798 100 901 208 q 513 -19 682 -19 q 229 100 344 -19 q 125 373 125 208 l 125 1047 l 283 1047 m 262 1251 q 291 1318 262 1290 q 359 1347 319 1347 q 427 1318 399 1347 q 456 1249 456 1290 q 427 1181 456 1209 q 359 1152 399 1152 q 290 1181 319 1152 q 262 1251 262 1211 m 567 1251 q 595 1318 567 1290 q 664 1347 624 1347 q 732 1318 704 1347 q 761 1249 761 1290 q 732 1181 761 1209 q 664 1152 704 1152 q 595 1181 623 1152 q 567 1251 567 1211 z "},"Ý":{"ha":833,"x_min":-5,"x_max":838,"o":"m 337 452 l -5 1047 l 177 1047 l 416 629 l 656 1047 l 838 1047 l 495 452 l 495 0 l 337 0 l 337 452 m 691 1329 l 414 1141 l 339 1204 l 557 1423 l 691 1329 z "},"Þ":{"ha":750,"x_min":125,"x_max":713,"o":"m 283 279 l 283 0 l 125 0 l 125 1047 l 283 1047 l 283 901 l 304 901 q 503 882 442 901 q 623 813 569 865 q 713 590 713 725 q 616 363 713 447 q 357 279 520 279 l 283 279 m 283 425 l 342 425 q 560 593 560 425 q 336 755 560 755 l 283 755 l 283 425 z "},"ß":{"ha":864,"x_min":42,"x_max":799,"o":"m 96 0 l 96 525 l 42 525 l 42 661 l 96 661 l 96 828 q 174 1073 96 990 q 409 1164 259 1164 q 631 1080 543 1164 q 719 871 719 998 q 607 661 719 736 q 747 537 694 622 q 799 351 799 452 q 633 47 799 161 q 383 -22 530 -22 l 383 125 q 571 189 501 125 q 643 355 643 252 q 558 526 643 467 q 383 574 504 562 l 383 715 q 521 757 474 715 q 568 878 568 800 q 524 985 568 943 q 410 1026 480 1026 q 290 980 328 1026 q 252 836 252 935 l 250 753 l 250 0 l 96 0 z "},"à":{"ha":833,"x_min":65,"x_max":736,"o":"m 583 661 l 736 661 l 736 0 l 583 0 l 583 69 q 380 -19 489 -19 q 154 80 243 -19 q 65 332 65 181 q 154 580 65 481 q 376 679 243 679 q 583 584 492 679 l 583 661 m 221 332 q 272 178 221 237 q 404 117 324 117 q 541 176 488 117 q 593 329 593 236 q 541 482 593 422 q 405 541 488 541 q 273 481 326 541 q 221 332 221 421 m 199 986 l 342 1061 l 529 814 l 445 762 l 199 986 z "},"á":{"ha":833,"x_min":65,"x_max":736,"o":"m 583 661 l 736 661 l 736 0 l 583 0 l 583 69 q 380 -19 489 -19 q 154 80 243 -19 q 65 332 65 181 q 154 580 65 481 q 376 679 243 679 q 583 584 492 679 l 583 661 m 221 332 q 272 178 221 237 q 404 117 324 117 q 541 176 488 117 q 593 329 593 236 q 541 482 593 422 q 405 541 488 541 q 273 481 326 541 q 221 332 221 421 m 650 986 l 404 762 l 320 814 l 507 1061 l 650 986 z "},"â":{"ha":833,"x_min":65,"x_max":736,"o":"m 583 661 l 736 661 l 736 0 l 583 0 l 583 69 q 380 -19 489 -19 q 154 80 243 -19 q 65 332 65 181 q 154 580 65 481 q 376 679 243 679 q 583 584 492 679 l 583 661 m 221 332 q 272 178 221 237 q 404 117 324 117 q 541 176 488 117 q 593 329 593 236 q 541 482 593 422 q 405 541 488 541 q 273 481 326 541 q 221 332 221 421 m 187 843 l 425 1061 l 667 843 l 562 762 l 425 891 l 290 762 l 187 843 z "},"ã":{"ha":833,"x_min":65,"x_max":736,"o":"m 583 661 l 736 661 l 736 0 l 583 0 l 583 69 q 380 -19 489 -19 q 154 80 243 -19 q 65 332 65 181 q 154 580 65 481 q 376 679 243 679 q 583 584 492 679 l 583 661 m 221 332 q 272 178 221 237 q 404 117 324 117 q 541 176 488 117 q 593 329 593 236 q 541 482 593 422 q 405 541 488 541 q 273 481 326 541 q 221 332 221 421 m 237 773 l 149 848 l 168 876 q 205 922 187 903 q 241 952 222 941 q 279 969 259 964 q 321 975 298 975 q 444 939 374 975 q 535 903 515 903 q 619 977 573 903 l 705 905 q 529 774 640 774 q 405 812 491 774 q 313 844 343 844 q 237 773 275 844 z "},"ä":{"ha":833,"x_min":65,"x_max":736,"o":"m 583 661 l 736 661 l 736 0 l 583 0 l 583 69 q 380 -19 489 -19 q 154 80 243 -19 q 65 332 65 181 q 154 580 65 481 q 376 679 243 679 q 583 584 492 679 l 583 661 m 221 332 q 272 178 221 237 q 404 117 324 117 q 541 176 488 117 q 593 329 593 236 q 541 482 593 422 q 405 541 488 541 q 273 481 326 541 q 221 332 221 421 m 182 871 q 211 938 182 910 q 279 966 239 966 q 348 938 319 966 q 376 870 376 910 q 348 801 376 829 q 279 773 318 773 q 210 802 239 773 q 182 871 182 831 m 466 871 q 494 938 466 910 q 563 966 524 966 q 631 938 604 966 q 660 870 660 910 q 631 801 660 829 q 563 773 602 773 q 494 802 523 773 q 466 871 466 830 z "},"å":{"ha":833,"x_min":65,"x_max":736,"o":"m 583 661 l 736 661 l 736 0 l 583 0 l 583 69 q 380 -19 489 -19 q 154 80 243 -19 q 65 332 65 181 q 154 580 65 481 q 376 679 243 679 q 583 584 492 679 l 583 661 m 221 332 q 272 178 221 237 q 404 117 324 117 q 541 176 488 117 q 593 329 593 236 q 541 482 593 422 q 405 541 488 541 q 273 481 326 541 q 221 332 221 421 m 273 912 q 317 1015 273 972 q 420 1058 360 1058 q 525 1015 482 1058 q 568 910 568 971 q 525 806 568 849 q 421 762 482 762 q 316 806 359 762 q 273 912 273 849 m 354 911 q 373 862 354 882 q 421 843 393 843 q 469 862 450 843 q 488 910 488 882 q 469 958 488 939 q 421 977 450 977 q 395 972 407 977 q 373 957 382 966 q 359 936 364 948 q 354 911 354 924 z "},"æ":{"ha":1196,"x_min":65,"x_max":1131,"o":"m 1128 296 l 652 296 q 707 166 659 216 q 827 117 755 117 q 1000 250 931 117 l 1131 176 q 1084 104 1109 135 q 1030 52 1059 73 q 819 -20 933 -20 q 580 86 686 -20 q 336 -20 497 -20 q 140 41 216 -20 q 65 201 65 102 q 137 363 65 302 q 326 426 210 426 q 498 381 410 426 q 461 506 498 471 q 334 542 423 542 q 157 517 248 542 l 157 659 q 349 679 275 679 q 581 586 510 679 q 811 679 669 679 q 1042 586 956 679 q 1129 340 1129 493 l 1128 296 m 968 420 q 819 541 940 541 q 662 420 696 541 l 968 420 m 213 203 q 251 139 213 165 q 347 113 291 113 q 448 140 408 113 q 489 207 489 167 q 447 268 489 242 q 346 294 405 294 q 252 267 290 294 q 213 203 213 241 z "},"ç":{"ha":662,"x_min":65,"x_max":610,"o":"m 610 632 l 610 429 q 517 517 558 493 q 421 541 476 541 q 278 481 335 541 q 221 330 221 420 q 276 177 221 237 q 418 117 332 117 q 515 141 473 117 q 610 231 555 164 l 610 29 q 425 -19 517 -19 q 168 80 271 -19 q 65 328 65 180 q 170 577 65 475 q 426 679 274 679 q 610 632 524 679 m 484 -135 l 322 -342 l 223 -293 l 358 -83 l 484 -135 z "},"è":{"ha":768,"x_min":65,"x_max":704,"o":"m 698 294 l 224 294 q 277 165 231 213 q 397 117 324 117 q 492 144 454 117 q 575 245 528 172 l 704 173 q 641 86 674 122 q 570 26 608 50 q 488 -8 532 3 q 392 -19 444 -19 q 155 76 244 -19 q 65 330 65 172 q 152 583 65 486 q 384 679 239 679 q 614 586 530 679 q 699 330 699 494 l 698 294 m 541 419 q 387 541 509 541 q 335 533 359 541 q 291 508 311 524 q 256 470 271 492 q 235 419 242 448 l 541 419 m 167 986 l 310 1061 l 497 814 l 413 762 l 167 986 z "},"é":{"ha":768,"x_min":65,"x_max":704,"o":"m 698 294 l 224 294 q 277 165 231 213 q 397 117 324 117 q 492 144 454 117 q 575 245 528 172 l 704 173 q 641 86 674 122 q 570 26 608 50 q 488 -8 532 3 q 392 -19 444 -19 q 155 76 244 -19 q 65 330 65 172 q 152 583 65 486 q 384 679 239 679 q 614 586 530 679 q 699 330 699 494 l 698 294 m 541 419 q 387 541 509 541 q 335 533 359 541 q 291 508 311 524 q 256 470 271 492 q 235 419 242 448 l 541 419 m 613 986 l 366 762 l 283 814 l 469 1061 l 613 986 z "},"ê":{"ha":768,"x_min":65,"x_max":704,"o":"m 698 294 l 224 294 q 277 165 231 213 q 397 117 324 117 q 492 144 454 117 q 575 245 528 172 l 704 173 q 641 86 674 122 q 570 26 608 50 q 488 -8 532 3 q 392 -19 444 -19 q 155 76 244 -19 q 65 330 65 172 q 152 583 65 486 q 384 679 239 679 q 614 586 530 679 q 699 330 699 494 l 698 294 m 541 419 q 387 541 509 541 q 335 533 359 541 q 291 508 311 524 q 256 470 271 492 q 235 419 242 448 l 541 419 m 151 843 l 389 1061 l 630 843 l 526 762 l 389 891 l 254 762 l 151 843 z "},"ë":{"ha":768,"x_min":65,"x_max":704,"o":"m 698 294 l 224 294 q 277 165 231 213 q 397 117 324 117 q 492 144 454 117 q 575 245 528 172 l 704 173 q 641 86 674 122 q 570 26 608 50 q 488 -8 532 3 q 392 -19 444 -19 q 155 76 244 -19 q 65 330 65 172 q 152 583 65 486 q 384 679 239 679 q 614 586 530 679 q 699 330 699 494 l 698 294 m 541 419 q 387 541 509 541 q 335 533 359 541 q 291 508 311 524 q 256 470 271 492 q 235 419 242 448 l 541 419 m 151 871 q 180 938 151 910 q 248 966 208 966 q 317 938 288 966 q 345 870 345 910 q 317 801 345 829 q 248 773 287 773 q 179 802 208 773 q 151 871 151 831 m 435 871 q 463 938 435 910 q 532 966 492 966 q 600 938 572 966 q 629 870 629 910 q 600 801 629 829 q 532 773 570 773 q 463 802 492 773 q 435 871 435 830 z "},"ì":{"ha":346,"x_min":-65,"x_max":249,"o":"m 249 661 l 249 0 l 96 0 l 96 661 l 249 661 m -65 986 l 73 1061 l 243 814 l 159 762 l -65 986 z "},"í":{"ha":346,"x_min":96,"x_max":412,"o":"m 249 661 l 249 0 l 96 0 l 96 661 l 249 661 m 412 986 l 186 762 l 102 814 l 274 1061 l 412 986 z "},"î":{"ha":346,"x_min":-56,"x_max":402,"o":"m 249 661 l 249 0 l 96 0 l 96 661 l 249 661 m -56 843 l 172 1061 l 402 843 l 298 762 l 172 891 l 47 762 l -56 843 z "},"ï":{"ha":346,"x_min":-46,"x_max":393,"o":"m 249 661 l 249 0 l 96 0 l 96 661 l 249 661 m -46 871 q -18 938 -46 910 q 50 966 9 966 q 119 938 90 966 q 147 870 147 910 q 119 801 147 829 q 50 773 89 773 q -18 802 9 773 q -46 871 -46 831 m 199 871 q 228 938 199 910 q 296 966 256 966 q 365 938 336 966 q 393 870 393 910 q 365 801 393 829 q 296 773 335 773 q 227 802 256 773 q 199 871 199 831 z "},"ð":{"ha":835,"x_min":65,"x_max":770,"o":"m 86 1062 l 149 1157 q 242 1118 194 1141 q 340 1064 290 1095 l 371 1046 l 531 1130 l 585 1042 l 458 974 q 687 670 604 838 q 770 342 770 497 q 671 82 770 185 q 420 -19 572 -19 q 167 81 269 -19 q 65 328 65 180 q 167 576 65 475 q 419 677 270 677 q 526 663 475 677 q 437 799 484 736 q 334 911 389 861 l 172 824 l 122 913 l 251 981 q 227 995 233 991 l 178 1019 l 123 1048 q 86 1062 115 1052 m 221 332 q 274 176 221 233 q 417 117 328 117 q 560 175 507 117 q 614 329 614 233 q 560 482 614 425 q 417 541 506 541 q 275 482 330 541 q 221 332 221 424 z "},"ñ":{"ha":762,"x_min":93,"x_max":665,"o":"m 96 661 l 250 661 l 250 600 q 430 679 330 679 q 610 606 545 679 q 665 405 665 545 l 665 0 l 512 0 l 512 369 q 485 504 512 467 q 389 542 458 542 q 281 492 313 542 q 250 319 250 442 l 250 0 l 96 0 l 96 661 m 182 773 l 93 848 l 113 876 q 149 922 132 903 q 185 952 167 941 q 223 969 203 964 q 266 975 243 975 q 389 939 319 975 q 479 903 459 903 q 564 977 517 903 l 650 905 q 473 774 585 774 q 349 812 435 774 q 257 844 288 844 q 182 773 220 844 z "},"ò":{"ha":835,"x_min":65,"x_max":770,"o":"m 65 335 q 168 578 65 478 q 417 679 270 679 q 668 578 565 679 q 770 330 770 477 q 667 81 770 181 q 414 -19 564 -19 q 165 83 266 -19 q 65 335 65 183 m 221 332 q 274 176 221 233 q 417 117 328 117 q 560 175 507 117 q 614 329 614 233 q 560 483 614 425 q 417 541 506 541 q 275 483 330 541 q 221 332 221 425 m 200 986 l 343 1061 l 530 814 l 446 762 l 200 986 z "},"ó":{"ha":835,"x_min":65,"x_max":770,"o":"m 65 335 q 168 578 65 478 q 417 679 270 679 q 668 578 565 679 q 770 330 770 477 q 667 81 770 181 q 414 -19 564 -19 q 165 83 266 -19 q 65 335 65 183 m 221 332 q 274 176 221 233 q 417 117 328 117 q 560 175 507 117 q 614 329 614 233 q 560 483 614 425 q 417 541 506 541 q 275 483 330 541 q 221 332 221 425 m 646 986 l 399 762 l 316 814 l 503 1061 l 646 986 z "},"ô":{"ha":835,"x_min":65,"x_max":770,"o":"m 65 335 q 168 578 65 478 q 417 679 270 679 q 668 578 565 679 q 770 330 770 477 q 667 81 770 181 q 414 -19 564 -19 q 165 83 266 -19 q 65 335 65 183 m 221 332 q 274 176 221 233 q 417 117 328 117 q 560 175 507 117 q 614 329 614 233 q 560 483 614 425 q 417 541 506 541 q 275 483 330 541 q 221 332 221 425 m 178 843 l 416 1061 l 657 843 l 553 762 l 416 891 l 281 762 l 178 843 z "},"õ":{"ha":835,"x_min":65,"x_max":770,"o":"m 65 335 q 168 578 65 478 q 417 679 270 679 q 668 578 565 679 q 770 330 770 477 q 667 81 770 181 q 414 -19 564 -19 q 165 83 266 -19 q 65 335 65 183 m 221 332 q 274 176 221 233 q 417 117 328 117 q 560 175 507 117 q 614 329 614 233 q 560 483 614 425 q 417 541 506 541 q 275 483 330 541 q 221 332 221 425 m 243 773 l 155 848 l 174 876 q 211 922 193 903 q 247 952 229 941 q 285 969 265 964 q 328 975 304 975 q 450 939 380 975 q 541 903 521 903 q 625 977 579 903 l 711 905 q 535 774 646 774 q 411 812 497 774 q 319 844 349 844 q 243 773 281 844 z "},"ö":{"ha":835,"x_min":65,"x_max":770,"o":"m 65 335 q 168 578 65 478 q 417 679 270 679 q 668 578 565 679 q 770 330 770 477 q 667 81 770 181 q 414 -19 564 -19 q 165 83 266 -19 q 65 335 65 183 m 221 332 q 274 176 221 233 q 417 117 328 117 q 560 175 507 117 q 614 329 614 233 q 560 483 614 425 q 417 541 506 541 q 275 483 330 541 q 221 332 221 425 m 178 871 q 207 938 178 910 q 275 966 235 966 q 344 938 315 966 q 372 870 372 910 q 344 801 372 829 q 275 773 314 773 q 206 802 235 773 q 178 871 178 831 m 462 871 q 490 938 462 910 q 559 966 519 966 q 627 938 600 966 q 656 870 656 910 q 627 801 656 829 q 559 773 597 773 q 490 802 519 773 q 462 871 462 830 z "},"÷":{"ha":857,"x_min":67,"x_max":789,"o":"m 67 481 l 67 608 l 789 608 l 789 481 l 67 481 m 340 311 q 366 372 340 347 q 429 398 394 398 q 490 372 465 398 q 516 310 516 347 q 490 248 516 273 q 429 222 465 222 q 366 248 392 222 q 340 311 340 275 m 340 781 q 366 842 340 816 q 429 867 394 867 q 490 842 465 867 q 516 779 516 816 q 490 717 516 743 q 429 691 465 691 q 366 717 392 691 q 340 781 340 745 z "},"ø":{"ha":835,"x_min":31,"x_max":798,"o":"m 625 614 l 729 718 l 798 644 l 696 545 q 770 328 770 446 q 668 81 770 182 q 420 -19 568 -19 q 201 50 295 -19 l 101 -47 l 31 24 l 131 123 q 65 332 65 219 q 168 578 65 477 q 418 679 271 679 q 625 614 528 679 m 514 510 q 418 531 473 531 q 275 475 328 531 q 221 328 221 420 q 242 229 221 273 l 514 510 m 587 441 l 311 154 q 418 127 360 127 q 560 182 506 127 q 614 328 614 237 q 587 441 614 388 z "},"ù":{"ha":757,"x_min":96,"x_max":661,"o":"m 249 661 l 249 281 q 378 117 249 117 q 508 281 508 117 l 508 661 l 661 661 l 661 278 q 641 141 661 199 q 575 48 622 90 q 378 -19 498 -19 q 182 48 260 -19 q 115 141 135 90 q 96 278 96 187 l 96 661 l 249 661 m 151 986 l 294 1061 l 481 814 l 397 762 l 151 986 z "},"ú":{"ha":757,"x_min":96,"x_max":661,"o":"m 249 661 l 249 281 q 378 117 249 117 q 508 281 508 117 l 508 661 l 661 661 l 661 278 q 641 141 661 199 q 575 48 622 90 q 378 -19 498 -19 q 182 48 260 -19 q 115 141 135 90 q 96 278 96 187 l 96 661 l 249 661 m 618 986 l 371 762 l 288 814 l 474 1061 l 618 986 z "},"û":{"ha":757,"x_min":96,"x_max":661,"o":"m 249 661 l 249 281 q 378 117 249 117 q 508 281 508 117 l 508 661 l 661 661 l 661 278 q 641 141 661 199 q 575 48 622 90 q 378 -19 498 -19 q 182 48 260 -19 q 115 141 135 90 q 96 278 96 187 l 96 661 l 249 661 m 140 843 l 378 1061 l 619 843 l 515 762 l 378 891 l 243 762 l 140 843 z "},"ü":{"ha":757,"x_min":96,"x_max":661,"o":"m 249 661 l 249 281 q 378 117 249 117 q 508 281 508 117 l 508 661 l 661 661 l 661 278 q 641 141 661 199 q 575 48 622 90 q 378 -19 498 -19 q 182 48 260 -19 q 115 141 135 90 q 96 278 96 187 l 96 661 l 249 661 m 140 871 q 169 938 140 910 q 237 966 197 966 q 306 938 277 966 q 334 870 334 910 q 306 801 334 829 q 237 773 276 773 q 168 802 197 773 q 140 871 140 831 m 424 871 q 452 938 424 910 q 521 966 481 966 q 589 938 562 966 q 618 870 618 910 q 589 801 618 829 q 521 773 559 773 q 452 802 481 773 q 424 871 424 830 z "},"ý":{"ha":755,"x_min":7,"x_max":747,"o":"m 304 123 l 7 661 l 184 661 l 387 281 l 575 661 l 747 661 l 221 -359 l 47 -359 l 304 123 m 637 986 l 391 762 l 307 814 l 494 1061 l 637 986 z "},"þ":{"ha":833,"x_min":96,"x_max":768,"o":"m 249 -359 l 96 -359 l 96 1145 l 249 1145 l 249 589 q 454 679 339 679 q 678 578 590 679 q 768 327 768 479 q 679 79 768 178 q 456 -19 591 -19 q 249 74 340 -19 l 249 -359 m 612 326 q 560 481 612 421 q 429 541 508 541 q 292 483 345 541 q 240 330 240 425 q 292 176 240 237 q 428 117 344 117 q 559 177 507 117 q 612 326 612 237 z "},"ÿ":{"ha":755,"x_min":7,"x_max":747,"o":"m 304 123 l 7 661 l 184 661 l 387 281 l 575 661 l 747 661 l 221 -359 l 47 -359 l 304 123 m 139 871 q 168 938 139 910 q 236 966 196 966 q 304 938 276 966 q 333 870 333 910 q 304 801 333 829 q 236 773 275 773 q 167 802 195 773 q 139 871 139 831 m 422 871 q 451 938 422 910 q 519 966 480 966 q 588 938 560 966 q 616 870 616 910 q 588 801 616 829 q 519 773 558 773 q 451 802 479 773 q 422 871 422 830 z "},"Ā":{"ha":1029,"x_min":5,"x_max":1023,"o":"m 741 254 l 292 254 l 176 0 l 5 0 l 524 1113 l 1023 0 l 850 0 l 741 254 m 676 403 l 521 759 l 358 403 l 676 403 m 283 1293 l 758 1293 l 758 1171 l 283 1171 l 283 1293 z "},"ā":{"ha":833,"x_min":65,"x_max":736,"o":"m 583 661 l 736 661 l 736 0 l 583 0 l 583 69 q 380 -19 489 -19 q 154 80 243 -19 q 65 332 65 181 q 154 580 65 481 q 376 679 243 679 q 583 584 492 679 l 583 661 m 221 332 q 272 178 221 237 q 404 117 324 117 q 541 176 488 117 q 593 329 593 236 q 541 482 593 422 q 405 541 488 541 q 273 481 326 541 q 221 332 221 421 m 188 911 l 663 911 l 663 789 l 188 789 l 188 911 z "},"Ă":{"ha":1029,"x_min":5,"x_max":1023,"o":"m 741 254 l 292 254 l 176 0 l 5 0 l 524 1113 l 1023 0 l 850 0 l 741 254 m 676 403 l 521 759 l 358 403 l 676 403 m 277 1374 l 402 1374 q 520 1267 418 1267 q 637 1374 622 1267 l 763 1374 q 691 1204 753 1261 q 517 1147 629 1147 q 349 1207 413 1147 q 277 1374 285 1267 z "},"ă":{"ha":833,"x_min":65,"x_max":736,"o":"m 583 661 l 736 661 l 736 0 l 583 0 l 583 69 q 380 -19 489 -19 q 154 80 243 -19 q 65 332 65 181 q 154 580 65 481 q 376 679 243 679 q 583 584 492 679 l 583 661 m 221 332 q 272 178 221 237 q 404 117 324 117 q 541 176 488 117 q 593 329 593 236 q 541 482 593 422 q 405 541 488 541 q 273 481 326 541 q 221 332 221 421 m 180 991 l 306 991 q 424 885 321 885 q 541 991 526 885 l 667 991 q 594 822 656 879 q 420 764 532 764 q 252 825 317 764 q 180 991 189 884 z "},"Ą":{"ha":1029,"x_min":5,"x_max":1023,"o":"m 741 254 l 292 254 l 176 0 l 5 0 l 524 1113 l 1023 0 l 850 0 l 741 254 m 676 403 l 521 759 l 358 403 l 676 403 m 852 0 l 985 0 q 853 -152 853 -87 q 922 -208 853 -208 q 965 -204 941 -208 q 1020 -194 989 -201 l 1004 -307 q 888 -340 951 -340 q 764 -298 813 -340 q 714 -196 714 -259 q 745 -94 714 -135 q 852 0 777 -49 z "},"ą":{"ha":833,"x_min":65,"x_max":752,"o":"m 583 661 l 736 661 l 736 0 l 583 0 l 583 69 q 380 -19 489 -19 q 154 80 243 -19 q 65 332 65 181 q 154 580 65 481 q 376 679 243 679 q 583 584 492 679 l 583 661 m 221 332 q 272 178 221 237 q 404 117 324 117 q 541 176 488 117 q 593 329 593 236 q 541 482 593 422 q 405 541 488 541 q 273 481 326 541 q 221 332 221 421 m 584 0 l 717 0 q 585 -152 585 -87 q 654 -208 585 -208 q 697 -204 673 -208 q 752 -194 722 -201 l 736 -307 q 620 -340 683 -340 q 496 -298 545 -340 q 446 -196 446 -259 q 477 -94 446 -135 q 584 0 509 -49 z "},"Ć":{"ha":973,"x_min":73,"x_max":899,"o":"m 899 991 l 899 804 q 616 918 762 918 q 344 802 454 918 q 233 520 233 687 q 344 242 233 355 q 616 129 455 129 q 758 156 700 129 q 826 193 791 170 q 899 248 861 216 l 899 58 q 614 -19 764 -19 q 231 138 390 -19 q 73 519 73 296 q 205 876 73 719 q 627 1067 368 1067 q 899 991 768 1067 m 828 1329 l 551 1141 l 476 1204 l 694 1423 l 828 1329 z "},"ć":{"ha":662,"x_min":65,"x_max":617,"o":"m 610 632 l 610 429 q 517 517 558 493 q 421 541 476 541 q 278 481 335 541 q 221 330 221 420 q 276 177 221 237 q 418 117 332 117 q 515 141 473 117 q 610 231 555 164 l 610 29 q 425 -19 517 -19 q 168 80 271 -19 q 65 328 65 180 q 170 577 65 475 q 426 679 274 679 q 610 632 524 679 m 617 986 l 370 762 l 287 814 l 473 1061 l 617 986 z "},"Ĉ":{"ha":973,"x_min":73,"x_max":899,"o":"m 899 991 l 899 804 q 616 918 762 918 q 344 802 454 918 q 233 520 233 687 q 344 242 233 355 q 616 129 455 129 q 758 156 700 129 q 826 193 791 170 q 899 248 861 216 l 899 58 q 614 -19 764 -19 q 231 138 390 -19 q 73 519 73 296 q 205 876 73 719 q 627 1067 368 1067 q 899 991 768 1067 m 347 1225 l 585 1443 l 826 1225 l 722 1145 l 585 1274 l 450 1145 l 347 1225 z "},"ĉ":{"ha":662,"x_min":65,"x_max":633,"o":"m 610 632 l 610 429 q 517 517 558 493 q 421 541 476 541 q 278 481 335 541 q 221 330 221 420 q 276 177 221 237 q 418 117 332 117 q 515 141 473 117 q 610 231 555 164 l 610 29 q 425 -19 517 -19 q 168 80 271 -19 q 65 328 65 180 q 170 577 65 475 q 426 679 274 679 q 610 632 524 679 m 153 843 l 391 1061 l 633 843 l 528 762 l 391 891 l 256 762 l 153 843 z "},"Ċ":{"ha":973,"x_min":73,"x_max":899,"o":"m 899 991 l 899 804 q 616 918 762 918 q 344 802 454 918 q 233 520 233 687 q 344 242 233 355 q 616 129 455 129 q 758 156 700 129 q 826 193 791 170 q 899 248 861 216 l 899 58 q 614 -19 764 -19 q 231 138 390 -19 q 73 519 73 296 q 205 876 73 719 q 627 1067 368 1067 q 899 991 768 1067 m 507 1244 q 537 1314 507 1284 q 610 1344 569 1344 q 682 1314 652 1344 q 712 1242 712 1284 q 682 1171 712 1200 q 610 1141 652 1141 q 537 1171 567 1141 q 507 1244 507 1200 z "},"ċ":{"ha":662,"x_min":65,"x_max":610,"o":"m 610 632 l 610 429 q 517 517 558 493 q 421 541 476 541 q 278 481 335 541 q 221 330 221 420 q 276 177 221 237 q 418 117 332 117 q 515 141 473 117 q 610 231 555 164 l 610 29 q 425 -19 517 -19 q 168 80 271 -19 q 65 328 65 180 q 170 577 65 475 q 426 679 274 679 q 610 632 524 679 m 290 876 q 320 947 290 917 q 393 977 352 977 q 465 947 435 977 q 495 875 495 917 q 465 803 495 832 q 393 773 435 773 q 320 803 350 773 q 290 876 290 833 z "},"Č":{"ha":973,"x_min":73,"x_max":899,"o":"m 899 991 l 899 804 q 616 918 762 918 q 344 802 454 918 q 233 520 233 687 q 344 242 233 355 q 616 129 455 129 q 758 156 700 129 q 826 193 791 170 q 899 248 861 216 l 899 58 q 614 -19 764 -19 q 231 138 390 -19 q 73 519 73 296 q 205 876 73 719 q 627 1067 368 1067 q 899 991 768 1067 m 841 1359 l 603 1141 l 361 1359 l 466 1440 l 602 1311 l 738 1440 l 841 1359 z "},"č":{"ha":662,"x_min":65,"x_max":623,"o":"m 610 632 l 610 429 q 517 517 558 493 q 421 541 476 541 q 278 481 335 541 q 221 330 221 420 q 276 177 221 237 q 418 117 332 117 q 515 141 473 117 q 610 231 555 164 l 610 29 q 425 -19 517 -19 q 168 80 271 -19 q 65 328 65 180 q 170 577 65 475 q 426 679 274 679 q 610 632 524 679 m 623 980 l 385 762 l 144 980 l 248 1061 l 385 932 l 520 1061 l 623 980 z "},"Ď":{"ha":1008,"x_min":125,"x_max":935,"o":"m 125 0 l 125 1047 l 345 1047 q 595 1016 503 1047 q 773 912 693 985 q 935 524 935 764 q 766 133 935 282 q 589 29 682 58 q 342 0 502 0 l 125 0 m 283 149 l 355 149 q 532 171 461 149 q 659 246 602 195 q 776 524 776 353 q 661 803 776 696 q 355 899 557 899 l 283 899 l 283 149 m 653 1359 l 415 1141 l 174 1359 l 278 1440 l 414 1311 l 550 1440 l 653 1359 z "},"ď":{"ha":983,"x_min":65,"x_max":961,"o":"m 583 1145 l 736 1145 l 736 0 l 583 0 l 583 69 q 379 -19 493 -19 q 154 80 243 -19 q 65 332 65 181 q 154 579 65 480 q 376 679 242 679 q 583 584 492 679 l 583 1145 m 221 332 q 272 178 221 237 q 404 117 324 117 q 541 176 488 117 q 593 329 593 236 q 541 482 593 422 q 405 541 488 541 q 273 481 326 541 q 221 332 221 421 m 961 805 l 910 703 l 825 739 l 867 841 l 863 872 l 808 872 l 808 1042 l 961 1042 l 961 805 z "},"Đ":{"ha":1008,"x_min":31,"x_max":935,"o":"m 125 0 l 125 477 l 31 477 l 31 612 l 125 612 l 125 1047 l 345 1047 q 595 1016 503 1047 q 773 912 693 985 q 935 524 935 764 q 766 133 935 282 q 589 29 682 58 q 342 0 502 0 l 125 0 m 283 149 l 355 149 q 532 171 461 149 q 659 245 602 194 q 776 523 776 352 q 661 803 776 696 q 355 899 557 899 l 283 899 l 283 612 l 509 612 l 509 477 l 283 477 l 283 149 z "},"đ":{"ha":833,"x_min":65,"x_max":854,"o":"m 221 332 q 272 178 221 237 q 404 117 324 117 q 541 176 488 117 q 593 329 593 236 q 541 482 593 422 q 405 541 488 541 q 273 481 326 541 q 221 332 221 421 m 736 1145 l 736 943 l 854 943 l 854 807 l 736 807 l 736 0 l 583 0 l 583 69 q 379 -19 493 -19 q 154 80 243 -19 q 65 332 65 181 q 154 579 65 480 q 376 679 242 679 q 583 584 492 679 l 583 807 l 420 807 l 420 943 l 583 943 l 583 1145 l 736 1145 z "},"Ē":{"ha":785,"x_min":125,"x_max":703,"o":"m 703 899 l 283 899 l 283 647 l 691 647 l 691 498 l 283 498 l 283 149 l 703 149 l 703 0 l 125 0 l 125 1047 l 703 1047 l 703 899 m 163 1293 l 639 1293 l 639 1171 l 163 1171 l 163 1293 z "},"ē":{"ha":768,"x_min":65,"x_max":704,"o":"m 698 294 l 224 294 q 277 165 231 213 q 397 117 324 117 q 492 144 454 117 q 575 245 528 172 l 704 173 q 641 86 674 122 q 570 26 608 50 q 488 -8 532 3 q 392 -19 444 -19 q 155 76 244 -19 q 65 330 65 172 q 152 583 65 486 q 384 679 239 679 q 614 586 530 679 q 699 330 699 494 l 698 294 m 541 419 q 387 541 509 541 q 335 533 359 541 q 291 508 311 524 q 256 470 271 492 q 235 419 242 448 l 541 419 m 149 911 l 625 911 l 625 789 l 149 789 l 149 911 z "},"Ĕ":{"ha":785,"x_min":125,"x_max":703,"o":"m 703 899 l 283 899 l 283 647 l 691 647 l 691 498 l 283 498 l 283 149 l 703 149 l 703 0 l 125 0 l 125 1047 l 703 1047 l 703 899 m 169 1373 l 294 1373 q 412 1267 309 1267 q 530 1373 515 1267 l 655 1373 q 583 1203 645 1261 q 409 1146 521 1146 q 241 1206 305 1146 q 169 1373 177 1266 z "},"ĕ":{"ha":768,"x_min":65,"x_max":704,"o":"m 698 294 l 224 294 q 277 165 231 213 q 397 117 324 117 q 492 144 454 117 q 575 245 528 172 l 704 173 q 641 86 674 122 q 570 26 608 50 q 488 -8 532 3 q 392 -19 444 -19 q 155 76 244 -19 q 65 330 65 172 q 152 583 65 486 q 384 679 239 679 q 614 586 530 679 q 699 330 699 494 l 698 294 m 541 419 q 387 541 509 541 q 335 533 359 541 q 291 508 311 524 q 256 470 271 492 q 235 419 242 448 l 541 419 m 150 991 l 275 991 q 393 885 290 885 q 511 991 496 885 l 636 991 q 564 822 626 879 q 390 764 502 764 q 222 825 286 764 q 150 991 158 884 z "},"Ė":{"ha":785,"x_min":125,"x_max":703,"o":"m 703 899 l 283 899 l 283 647 l 691 647 l 691 498 l 283 498 l 283 149 l 703 149 l 703 0 l 125 0 l 125 1047 l 703 1047 l 703 899 m 313 1255 q 342 1326 313 1297 q 415 1356 374 1356 q 487 1326 457 1356 q 517 1255 517 1297 q 487 1182 517 1211 q 415 1152 457 1152 q 342 1182 372 1152 q 313 1255 313 1214 z "},"ė":{"ha":768,"x_min":65,"x_max":704,"o":"m 698 294 l 224 294 q 277 165 231 213 q 397 117 324 117 q 492 144 454 117 q 575 245 528 172 l 704 173 q 641 86 674 122 q 570 26 608 50 q 488 -8 532 3 q 392 -19 444 -19 q 155 76 244 -19 q 65 330 65 172 q 152 583 65 486 q 384 679 239 679 q 614 586 530 679 q 699 330 699 494 l 698 294 m 541 419 q 387 541 509 541 q 335 533 359 541 q 291 508 311 524 q 256 470 271 492 q 235 419 242 448 l 541 419 m 288 876 q 317 947 288 917 q 390 977 349 977 q 462 947 432 977 q 492 875 492 917 q 462 803 492 832 q 390 773 432 773 q 317 803 347 773 q 288 876 288 833 z "},"Ę":{"ha":785,"x_min":125,"x_max":739,"o":"m 703 899 l 283 899 l 283 647 l 691 647 l 691 498 l 283 498 l 283 149 l 703 149 l 703 0 l 125 0 l 125 1047 l 703 1047 l 703 899 m 571 0 l 704 0 q 572 -152 572 -87 q 641 -208 572 -208 q 685 -204 661 -208 q 739 -194 709 -201 l 724 -307 q 607 -340 670 -340 q 483 -298 532 -340 q 433 -196 433 -259 q 465 -94 433 -135 q 571 0 496 -49 z "},"ę":{"ha":768,"x_min":65,"x_max":704,"o":"m 698 294 l 224 294 q 277 165 231 213 q 397 117 324 117 q 492 144 454 117 q 575 245 528 172 l 704 173 q 641 86 674 122 q 570 26 608 50 q 488 -8 532 3 q 392 -19 444 -19 q 155 76 244 -19 q 65 330 65 172 q 152 583 65 486 q 384 679 239 679 q 614 586 530 679 q 699 330 699 494 l 698 294 m 541 419 q 387 541 509 541 q 335 533 359 541 q 291 508 311 524 q 256 470 271 492 q 235 419 242 448 l 541 419 m 380 0 l 513 0 q 382 -152 382 -87 q 450 -208 382 -208 q 494 -204 470 -208 q 549 -194 518 -201 l 533 -307 q 416 -340 479 -340 q 292 -298 342 -340 q 243 -196 243 -259 q 274 -94 243 -135 q 380 0 305 -49 z "},"Ě":{"ha":785,"x_min":125,"x_max":703,"o":"m 703 899 l 283 899 l 283 647 l 691 647 l 691 498 l 283 498 l 283 149 l 703 149 l 703 0 l 125 0 l 125 1047 l 703 1047 l 703 899 m 647 1359 l 409 1141 l 168 1359 l 272 1440 l 408 1311 l 544 1440 l 647 1359 z "},"ě":{"ha":768,"x_min":65,"x_max":704,"o":"m 698 294 l 224 294 q 277 165 231 213 q 397 117 324 117 q 492 144 454 117 q 575 245 528 172 l 704 173 q 641 86 674 122 q 570 26 608 50 q 488 -8 532 3 q 392 -19 444 -19 q 155 76 244 -19 q 65 330 65 172 q 152 583 65 486 q 384 679 239 679 q 614 586 530 679 q 699 330 699 494 l 698 294 m 541 419 q 387 541 509 541 q 335 533 359 541 q 291 508 311 524 q 256 470 271 492 q 235 419 242 448 l 541 419 m 633 980 l 395 762 l 153 980 l 258 1061 l 394 932 l 530 1061 l 633 980 z "},"Ĝ":{"ha":1170,"x_min":73,"x_max":1097,"o":"m 664 545 l 1097 545 l 1097 511 q 1069 302 1097 393 q 977 144 1042 218 q 606 -20 831 -20 q 230 139 387 -20 q 73 522 73 298 q 233 908 73 749 q 621 1067 392 1067 q 850 1017 743 1067 q 1050 854 951 967 l 937 747 q 623 918 808 918 q 345 804 457 918 q 232 522 232 691 q 357 233 232 347 q 612 128 475 128 q 821 207 728 128 q 925 397 914 286 l 664 397 l 664 545 m 379 1225 l 617 1442 l 859 1225 l 754 1144 l 617 1273 l 482 1144 l 379 1225 z "},"ĝ":{"ha":831,"x_min":65,"x_max":735,"o":"m 735 16 q 732 -67 735 -31 q 724 -130 729 -102 q 660 -258 707 -204 q 414 -361 570 -361 q 196 -290 281 -361 q 94 -87 108 -216 l 248 -87 q 277 -162 256 -136 q 415 -224 324 -224 q 583 -18 583 -224 l 583 74 q 373 -19 492 -19 q 152 79 238 -19 q 65 326 65 178 q 146 572 65 471 q 375 679 233 679 q 583 586 500 679 l 583 661 l 735 661 l 735 16 m 589 329 q 537 483 589 425 q 404 542 485 542 q 267 477 317 542 q 221 328 221 420 q 267 180 221 238 q 404 117 316 117 q 542 181 491 117 q 589 329 589 239 m 153 843 l 391 1061 l 633 843 l 528 762 l 391 891 l 256 762 l 153 843 z "},"Ğ":{"ha":1170,"x_min":73,"x_max":1097,"o":"m 664 545 l 1097 545 l 1097 511 q 1069 302 1097 393 q 977 144 1042 218 q 606 -20 831 -20 q 230 139 387 -20 q 73 522 73 298 q 233 908 73 749 q 621 1067 392 1067 q 850 1017 743 1067 q 1050 854 951 967 l 937 747 q 623 918 808 918 q 345 804 457 918 q 232 522 232 691 q 357 233 232 347 q 612 128 475 128 q 821 207 728 128 q 925 397 914 286 l 664 397 l 664 545 m 363 1374 l 488 1374 q 606 1267 504 1267 q 724 1374 708 1267 l 849 1374 q 777 1204 839 1261 q 603 1147 715 1147 q 435 1207 499 1147 q 363 1374 371 1267 z "},"ğ":{"ha":831,"x_min":65,"x_max":735,"o":"m 735 16 q 732 -67 735 -31 q 724 -130 729 -102 q 660 -258 707 -204 q 414 -361 570 -361 q 196 -290 281 -361 q 94 -87 108 -216 l 248 -87 q 277 -162 256 -136 q 415 -224 324 -224 q 583 -18 583 -224 l 583 74 q 373 -19 492 -19 q 152 79 238 -19 q 65 326 65 178 q 146 572 65 471 q 375 679 233 679 q 583 586 500 679 l 583 661 l 735 661 l 735 16 m 589 329 q 537 483 589 425 q 404 542 485 542 q 267 477 317 542 q 221 328 221 420 q 267 180 221 238 q 404 117 316 117 q 542 181 491 117 q 589 329 589 239 m 165 991 l 291 991 q 409 885 306 885 q 526 991 511 885 l 652 991 q 579 822 642 879 q 406 764 517 764 q 237 825 302 764 q 165 991 174 884 z "},"Ġ":{"ha":1170,"x_min":73,"x_max":1097,"o":"m 664 545 l 1097 545 l 1097 511 q 1069 302 1097 393 q 977 144 1042 218 q 606 -20 831 -20 q 230 139 387 -20 q 73 522 73 298 q 233 908 73 749 q 621 1067 392 1067 q 850 1017 743 1067 q 1050 854 951 967 l 937 747 q 623 918 808 918 q 345 804 457 918 q 232 522 232 691 q 357 233 232 347 q 612 128 475 128 q 821 207 728 128 q 925 397 914 286 l 664 397 l 664 545 m 511 1249 q 541 1319 511 1289 q 614 1349 573 1349 q 686 1319 656 1349 q 716 1247 716 1289 q 686 1175 716 1204 q 614 1145 656 1145 q 541 1175 571 1145 q 511 1249 511 1205 z "},"ġ":{"ha":831,"x_min":65,"x_max":735,"o":"m 735 16 q 732 -67 735 -31 q 724 -130 729 -102 q 660 -258 707 -204 q 414 -361 570 -361 q 196 -290 281 -361 q 94 -87 108 -216 l 248 -87 q 277 -162 256 -136 q 415 -224 324 -224 q 583 -18 583 -224 l 583 74 q 373 -19 492 -19 q 152 79 238 -19 q 65 326 65 178 q 146 572 65 471 q 375 679 233 679 q 583 586 500 679 l 583 661 l 735 661 l 735 16 m 589 329 q 537 483 589 425 q 404 542 485 542 q 267 477 317 542 q 221 328 221 420 q 267 180 221 238 q 404 117 316 117 q 542 181 491 117 q 589 329 589 239 m 290 876 q 320 947 290 917 q 393 977 352 977 q 465 947 435 977 q 495 875 495 917 q 465 803 495 832 q 393 773 435 773 q 320 803 350 773 q 290 876 290 833 z "},"Ģ":{"ha":1170,"x_min":73,"x_max":1097,"o":"m 664 545 l 1097 545 l 1097 511 q 1069 302 1097 393 q 977 144 1042 218 q 606 -20 831 -20 q 230 139 387 -20 q 73 522 73 298 q 233 908 73 749 q 621 1067 392 1067 q 850 1017 743 1067 q 1050 854 951 967 l 937 747 q 623 918 808 918 q 345 804 457 918 q 232 522 232 691 q 357 233 232 347 q 612 128 475 128 q 821 207 728 128 q 925 397 914 286 l 664 397 l 664 545 m 694 -298 l 644 -401 l 559 -365 l 600 -262 l 597 -231 l 542 -231 l 542 -62 l 694 -62 l 694 -298 z "},"ģ":{"ha":831,"x_min":65,"x_max":735,"o":"m 735 16 q 732 -67 735 -31 q 724 -130 729 -102 q 660 -258 707 -204 q 414 -361 570 -361 q 196 -290 281 -361 q 94 -87 108 -216 l 248 -87 q 277 -162 256 -136 q 415 -224 324 -224 q 583 -18 583 -224 l 583 74 q 373 -19 492 -19 q 152 79 238 -19 q 65 326 65 178 q 146 572 65 471 q 375 679 233 679 q 583 586 500 679 l 583 661 l 735 661 l 735 16 m 589 329 q 537 483 589 425 q 404 542 485 542 q 267 477 317 542 q 221 328 221 420 q 267 180 221 238 q 404 117 316 117 q 542 181 491 117 q 589 329 589 239 m 336 998 l 387 1101 l 471 1065 l 430 962 l 433 931 l 488 931 l 488 762 l 336 762 l 336 998 z "},"Ĥ":{"ha":1019,"x_min":125,"x_max":893,"o":"m 283 637 l 735 637 l 735 1047 l 893 1047 l 893 0 l 735 0 l 735 489 l 283 489 l 283 0 l 125 0 l 125 1047 l 283 1047 l 283 637 m 281 1220 l 519 1438 l 760 1220 l 656 1139 l 519 1268 l 384 1139 l 281 1220 z "},"ĥ":{"ha":762,"x_min":-67,"x_max":665,"o":"m 96 1145 l 249 1145 l 249 606 q 429 679 330 679 q 608 606 541 679 q 665 405 665 543 l 665 0 l 512 0 l 512 391 q 484 506 512 470 q 393 541 456 541 q 281 492 313 541 q 249 319 249 441 l 249 0 l 96 0 l 96 1145 m -67 1220 l 171 1438 l 412 1220 l 308 1139 l 171 1268 l 36 1139 l -67 1220 z "},"Ħ":{"ha":1179,"x_min":0,"x_max":1178,"o":"m 353 637 l 805 637 l 805 1047 l 963 1047 l 963 0 l 805 0 l 805 489 l 353 489 l 353 0 l 195 0 l 195 1047 l 353 1047 l 353 637 m 0 907 l 1178 907 l 1178 764 l 0 764 l 0 907 z "},"ħ":{"ha":762,"x_min":24,"x_max":665,"o":"m 96 1145 l 249 1145 l 249 606 q 429 679 330 679 q 608 606 541 679 q 665 405 665 543 l 665 0 l 512 0 l 512 391 q 484 506 512 470 q 393 541 456 541 q 281 492 313 541 q 249 319 249 441 l 249 0 l 96 0 l 96 1145 m 24 906 l 326 906 l 326 773 l 24 773 l 24 906 z "},"Ĩ":{"ha":561,"x_min":2,"x_max":559,"o":"m 91 1141 l 2 1216 l 22 1244 q 58 1290 41 1271 q 94 1320 76 1308 q 132 1337 113 1332 q 175 1342 152 1342 q 298 1307 228 1342 q 389 1271 368 1271 q 473 1344 427 1271 l 559 1272 q 382 1142 494 1142 q 258 1180 345 1142 q 166 1211 197 1211 q 91 1141 129 1211 m 353 1045 l 353 -2 l 195 -2 l 195 1045 l 353 1045 z "},"ĩ":{"ha":551,"x_min":-3,"x_max":554,"o":"m 86 760 l -3 835 l 17 863 q 54 908 36 890 q 90 939 71 927 q 127 956 108 951 q 170 961 147 961 q 293 926 223 961 q 384 890 363 890 q 468 963 422 890 l 554 891 q 378 761 489 761 q 254 799 340 761 q 161 830 192 830 q 86 760 124 830 m 353 661 l 353 0 l 200 0 l 200 661 l 353 661 z "},"Ī":{"ha":410,"x_min":2,"x_max":411,"o":"m 283 1047 l 283 0 l 125 0 l 125 1047 l 283 1047 m 2 1293 l 411 1293 l 411 1171 l 2 1171 l 2 1293 z "},"ī":{"ha":346,"x_min":0,"x_max":346,"o":"m 249 661 l 249 0 l 96 0 l 96 661 l 249 661 m 0 911 l 346 911 l 346 789 l 0 789 l 0 911 z "},"Ĭ":{"ha":489,"x_min":-1,"x_max":486,"o":"m -1 1369 l 125 1369 q 243 1262 140 1262 q 360 1369 345 1262 l 486 1369 q 413 1199 475 1256 q 239 1141 351 1141 q 71 1202 136 1141 q -1 1369 7 1261 m 326 1047 l 326 0 l 168 0 l 168 1047 l 326 1047 z "},"ĭ":{"ha":486,"x_min":0,"x_max":486,"o":"m 0 987 l 125 987 q 243 881 140 881 q 361 987 346 881 l 486 987 q 414 818 476 875 q 240 760 352 760 q 72 821 136 760 q 0 987 8 880 m 311 665 l 311 5 l 158 5 l 158 665 l 311 665 z "},"Į":{"ha":410,"x_min":-11,"x_max":295,"o":"m 283 1047 l 283 0 l 125 0 l 125 1047 l 283 1047 m 127 0 l 260 0 q 128 -152 128 -87 q 197 -208 128 -208 q 240 -204 216 -208 q 295 -194 264 -201 l 279 -307 q 163 -340 226 -340 q 39 -298 88 -340 q -11 -196 -11 -259 q 20 -94 -11 -135 q 127 0 52 -49 z "},"į":{"ha":346,"x_min":-39,"x_max":272,"o":"m 249 661 l 249 0 l 96 0 l 96 661 l 249 661 m 73 935 q 102 1004 73 975 q 172 1034 132 1034 q 243 1004 214 1034 q 272 935 272 976 q 243 864 272 893 q 173 835 214 835 q 102 864 132 835 q 73 935 73 893 m 98 0 l 231 0 q 100 -152 100 -87 q 168 -208 100 -208 q 212 -204 188 -208 q 267 -194 236 -201 l 251 -307 q 134 -340 197 -340 q 10 -298 60 -340 q -39 -196 -39 -259 q -8 -94 -39 -135 q 98 0 23 -49 z "},"İ":{"ha":410,"x_min":102,"x_max":307,"o":"m 283 1047 l 283 0 l 125 0 l 125 1047 l 283 1047 m 102 1255 q 132 1326 102 1297 q 205 1356 164 1356 q 277 1326 247 1356 q 307 1255 307 1297 q 277 1182 307 1211 q 205 1152 247 1152 q 132 1182 162 1152 q 102 1255 102 1214 z "},"ı":{"ha":346,"x_min":96,"x_max":249,"o":"m 249 661 l 249 0 l 96 0 l 96 661 l 249 661 z "},"Ĳ":{"ha":1004,"x_min":125,"x_max":882,"o":"m 283 1047 l 283 0 l 125 0 l 125 1047 l 283 1047 m 882 1052 l 882 374 q 865 193 882 253 q 808 79 848 125 q 597 -14 728 -14 q 412 37 498 -14 l 490 172 q 597 134 547 134 q 695 187 668 134 q 724 374 724 241 l 724 1052 l 882 1052 z "},"ĳ":{"ha":716,"x_min":73,"x_max":602,"o":"m 249 661 l 249 0 l 96 0 l 96 661 l 249 661 m 73 935 q 102 1004 73 975 q 172 1034 132 1034 q 243 1004 214 1034 q 272 935 272 976 q 243 864 272 893 q 173 835 214 835 q 102 864 132 835 q 73 935 73 893 m 579 661 l 579 -359 l 427 -359 l 427 661 l 579 661 m 404 935 q 433 1004 404 975 q 503 1034 462 1034 q 573 1004 544 1034 q 602 935 602 976 q 573 864 602 893 q 503 835 545 835 q 433 864 462 835 q 404 935 404 893 z "},"Ĵ":{"ha":631,"x_min":-26,"x_max":629,"o":"m 444 1047 l 444 370 q 427 189 444 248 q 370 74 410 121 q 159 -19 290 -19 q -26 33 60 -19 l 52 168 q 159 129 109 129 q 257 182 230 129 q 286 370 286 236 l 286 1047 l 444 1047 m 149 1220 l 387 1438 l 629 1220 l 524 1139 l 387 1268 l 252 1139 l 149 1220 z "},"ĵ":{"ha":476,"x_min":-2,"x_max":477,"o":"m -2 847 l 236 1065 l 477 847 l 373 766 l 236 895 l 101 766 l -2 847 m 307 573 l 307 -240 l 154 -240 l 154 573 l 307 573 z "},"Ķ":{"ha":920,"x_min":125,"x_max":905,"o":"m 283 629 l 691 1047 l 902 1047 l 429 573 l 905 0 l 693 0 l 316 466 l 283 433 l 283 0 l 125 0 l 125 1047 l 283 1047 l 283 629 m 513 -298 l 463 -401 l 378 -365 l 419 -262 l 416 -231 l 361 -231 l 361 -62 l 513 -62 l 513 -298 z "},"ķ":{"ha":692,"x_min":96,"x_max":690,"o":"m 249 1145 l 249 447 l 464 661 l 669 661 l 382 383 l 690 0 l 492 0 l 273 279 l 249 254 l 249 0 l 96 0 l 96 1145 l 249 1145 m 418 -298 l 368 -401 l 283 -365 l 324 -262 l 321 -231 l 266 -231 l 266 -62 l 418 -62 l 418 -298 z "},"ĸ":{"ha":692,"x_min":96,"x_max":690,"o":"m 249 660 l 249 447 l 464 661 l 669 661 l 382 383 l 690 0 l 492 0 l 273 279 l 249 254 l 249 0 l 96 0 l 96 660 l 249 660 z "},"Ĺ":{"ha":616,"x_min":125,"x_max":591,"o":"m 283 1047 l 283 149 l 591 149 l 591 0 l 125 0 l 125 1047 l 283 1047 m 515 1329 l 238 1141 l 163 1204 l 380 1423 l 515 1329 z "},"ĺ":{"ha":346,"x_min":33,"x_max":385,"o":"m 249 1145 l 249 0 l 96 0 l 96 1145 l 249 1145 m 385 1373 l 109 1186 l 33 1249 l 251 1468 l 385 1373 z "},"Ļ":{"ha":616,"x_min":125,"x_max":591,"o":"m 283 1047 l 283 149 l 591 149 l 591 0 l 125 0 l 125 1047 l 283 1047 m 428 -298 l 377 -401 l 292 -365 l 334 -262 l 330 -231 l 275 -231 l 275 -62 l 428 -62 l 428 -298 z "},"ļ":{"ha":346,"x_min":96,"x_max":251,"o":"m 249 1145 l 249 0 l 96 0 l 96 1145 l 249 1145 m 251 -298 l 200 -401 l 115 -365 l 157 -262 l 153 -231 l 98 -231 l 98 -62 l 251 -62 l 251 -298 z "},"Ľ":{"ha":616,"x_min":125,"x_max":591,"o":"m 283 1047 l 283 149 l 591 149 l 591 0 l 125 0 l 125 1047 l 283 1047 m 545 805 l 494 703 l 410 739 l 451 841 l 448 872 l 393 872 l 393 1042 l 545 1042 l 545 805 z "},"ľ":{"ha":496,"x_min":96,"x_max":473,"o":"m 249 1145 l 249 0 l 96 0 l 96 1145 l 249 1145 m 473 805 l 422 703 l 338 739 l 379 841 l 376 872 l 321 872 l 321 1042 l 473 1042 l 473 805 z "},"Ŀ":{"ha":616,"x_min":125,"x_max":618,"o":"m 283 1047 l 283 149 l 591 149 l 591 0 l 125 0 l 125 1047 l 283 1047 m 413 876 q 443 947 413 917 q 515 977 475 977 q 587 947 557 977 q 618 875 618 917 q 587 803 618 832 q 515 773 557 773 q 443 803 473 773 q 413 876 413 833 z "},"ŀ":{"ha":650,"x_min":96,"x_max":566,"o":"m 249 1145 l 249 0 l 96 0 l 96 1145 l 249 1145 m 361 867 q 391 938 361 908 q 463 968 422 968 q 535 938 505 968 q 566 866 566 908 q 535 794 566 823 q 463 764 505 764 q 391 794 420 764 q 361 867 361 824 z "},"Ł":{"ha":616,"x_min":26,"x_max":592,"o":"m 284 648 l 486 782 l 486 625 l 284 492 l 284 149 l 592 149 l 592 0 l 126 0 l 126 407 l 26 340 l 26 498 l 126 564 l 126 1047 l 284 1047 l 284 648 z "},"ł":{"ha":414,"x_min":31,"x_max":383,"o":"m 383 733 l 383 581 l 283 512 l 283 0 l 131 0 l 131 436 l 31 366 l 31 518 l 131 588 l 131 1145 l 283 1145 l 283 664 l 383 733 z "},"Ń":{"ha":1173,"x_min":125,"x_max":1047,"o":"m 125 0 l 125 1118 l 889 319 l 889 1047 l 1047 1047 l 1047 -64 l 283 733 l 283 0 l 125 0 m 805 1329 l 528 1141 l 453 1204 l 671 1423 l 805 1329 z "},"ń":{"ha":762,"x_min":96,"x_max":665,"o":"m 96 661 l 250 661 l 250 600 q 430 679 330 679 q 610 606 545 679 q 665 405 665 545 l 665 0 l 512 0 l 512 369 q 485 504 512 467 q 389 542 458 542 q 281 492 313 542 q 250 319 250 442 l 250 0 l 96 0 l 96 661 m 608 986 l 361 762 l 277 814 l 464 1061 l 608 986 z "},"Ņ":{"ha":1173,"x_min":125,"x_max":1047,"o":"m 125 0 l 125 1118 l 889 319 l 889 1047 l 1047 1047 l 1047 -64 l 283 733 l 283 0 l 125 0 m 688 -298 l 637 -401 l 553 -365 l 594 -262 l 591 -231 l 536 -231 l 536 -62 l 688 -62 l 688 -298 z "},"ņ":{"ha":762,"x_min":96,"x_max":665,"o":"m 96 661 l 250 661 l 250 600 q 430 679 330 679 q 610 606 545 679 q 665 405 665 545 l 665 0 l 512 0 l 512 369 q 485 504 512 467 q 389 542 458 542 q 281 492 313 542 q 250 319 250 442 l 250 0 l 96 0 l 96 661 m 467 -298 l 416 -401 l 332 -365 l 373 -262 l 370 -231 l 315 -231 l 315 -62 l 467 -62 l 467 -298 z "},"Ň":{"ha":1173,"x_min":125,"x_max":1047,"o":"m 125 0 l 125 1118 l 889 319 l 889 1047 l 1047 1047 l 1047 -64 l 283 733 l 283 0 l 125 0 m 830 1359 l 592 1141 l 351 1359 l 455 1440 l 591 1311 l 727 1440 l 830 1359 z "},"ň":{"ha":762,"x_min":96,"x_max":665,"o":"m 96 661 l 250 661 l 250 600 q 430 679 330 679 q 610 606 545 679 q 665 405 665 545 l 665 0 l 512 0 l 512 369 q 485 504 512 467 q 389 542 458 542 q 281 492 313 542 q 250 319 250 442 l 250 0 l 96 0 l 96 661 m 633 980 l 395 762 l 153 980 l 258 1061 l 394 932 l 530 1061 l 633 980 z "},"ŉ":{"ha":1080,"x_min":79,"x_max":930,"o":"m 361 661 l 515 661 l 515 600 q 695 679 595 679 q 875 606 810 679 q 930 405 930 545 l 930 0 l 777 0 l 777 369 q 750 504 777 467 q 654 542 724 542 q 546 492 578 542 q 515 319 515 442 l 515 0 l 361 0 l 361 661 m 239 1102 l 375 1049 l 182 661 l 79 704 l 239 1102 z "},"Ō":{"ha":1241,"x_min":73,"x_max":1168,"o":"m 73 528 q 235 908 73 749 q 623 1067 397 1067 q 1007 907 847 1067 q 1168 522 1168 747 q 1006 139 1168 296 q 615 -19 844 -19 q 251 121 412 -19 q 73 528 73 277 m 233 526 q 349 241 233 353 q 617 129 465 129 q 895 243 782 129 q 1008 524 1008 358 q 897 804 1008 691 q 621 918 785 918 q 345 804 458 918 q 233 526 233 692 m 387 1293 l 863 1293 l 863 1171 l 387 1171 l 387 1293 z "},"ō":{"ha":835,"x_min":65,"x_max":770,"o":"m 65 335 q 168 578 65 478 q 417 679 270 679 q 668 578 565 679 q 770 330 770 477 q 667 81 770 181 q 414 -19 564 -19 q 165 83 266 -19 q 65 335 65 183 m 221 332 q 274 176 221 233 q 417 117 328 117 q 560 175 507 117 q 614 329 614 233 q 560 483 614 425 q 417 541 506 541 q 275 483 330 541 q 221 332 221 425 m 182 911 l 657 911 l 657 789 l 182 789 l 182 911 z "},"Ŏ":{"ha":1241,"x_min":73,"x_max":1168,"o":"m 73 528 q 235 908 73 749 q 623 1067 397 1067 q 1007 907 847 1067 q 1168 522 1168 747 q 1006 139 1168 296 q 615 -19 844 -19 q 251 121 412 -19 q 73 528 73 277 m 233 526 q 349 241 233 353 q 617 129 465 129 q 895 243 782 129 q 1008 524 1008 358 q 897 804 1008 691 q 621 918 785 918 q 345 804 458 918 q 233 526 233 692 m 376 1369 l 502 1369 q 620 1262 517 1262 q 737 1369 722 1262 l 863 1369 q 790 1199 852 1256 q 616 1141 728 1141 q 448 1202 513 1141 q 376 1369 385 1261 z "},"ŏ":{"ha":835,"x_min":65,"x_max":770,"o":"m 65 335 q 168 578 65 478 q 417 679 270 679 q 668 578 565 679 q 770 330 770 477 q 667 81 770 181 q 414 -19 564 -19 q 165 83 266 -19 q 65 335 65 183 m 221 332 q 274 176 221 233 q 417 117 328 117 q 560 175 507 117 q 614 329 614 233 q 560 483 614 425 q 417 541 506 541 q 275 483 330 541 q 221 332 221 425 m 169 991 l 294 991 q 412 885 309 885 q 530 991 515 885 l 655 991 q 583 822 645 879 q 409 764 521 764 q 241 825 305 764 q 169 991 177 884 z "},"Ő":{"ha":1241,"x_min":73,"x_max":1168,"o":"m 73 528 q 235 908 73 749 q 623 1067 397 1067 q 1007 907 847 1067 q 1168 522 1168 747 q 1006 139 1168 296 q 615 -19 844 -19 q 251 121 412 -19 q 73 528 73 277 m 233 526 q 349 241 233 353 q 617 129 465 129 q 895 243 782 129 q 1008 524 1008 358 q 897 804 1008 691 q 621 918 785 918 q 345 804 458 918 q 233 526 233 692 m 1015 1329 l 738 1141 l 663 1204 l 880 1423 l 1015 1329 m 731 1329 l 454 1141 l 379 1204 l 597 1423 l 731 1329 z "},"ő":{"ha":835,"x_min":65,"x_max":770,"o":"m 65 335 q 168 578 65 478 q 417 679 270 679 q 668 578 565 679 q 770 330 770 477 q 667 81 770 181 q 414 -19 564 -19 q 165 83 266 -19 q 65 335 65 183 m 221 332 q 274 176 221 233 q 417 117 328 117 q 560 175 507 117 q 614 329 614 233 q 560 483 614 425 q 417 541 506 541 q 275 483 330 541 q 221 332 221 425 m 482 986 l 256 762 l 189 814 l 354 1061 l 482 986 m 765 986 l 538 762 l 471 814 l 636 1061 l 765 986 z "},"Œ":{"ha":1644,"x_min":73,"x_max":1563,"o":"m 1563 899 l 1157 899 l 1157 646 l 1551 646 l 1551 497 l 1157 497 l 1157 149 l 1563 149 l 1563 0 l 999 0 l 999 144 q 821 18 907 55 q 626 -19 735 -19 q 235 138 396 -19 q 73 520 73 296 q 211 886 73 726 q 619 1067 368 1067 q 819 1028 737 1067 q 999 897 907 989 l 999 1047 l 1563 1047 l 1563 899 m 233 530 q 342 246 233 363 q 610 130 452 130 q 886 243 772 130 q 1000 520 1000 358 q 886 800 1000 683 q 614 918 773 918 q 346 803 458 918 q 233 530 233 688 z "},"œ":{"ha":1324,"x_min":65,"x_max":1260,"o":"m 1257 294 l 775 294 q 831 167 781 217 q 955 117 880 117 q 1130 248 1063 117 l 1260 172 q 944 -20 1144 -20 q 798 14 873 -20 q 686 106 728 49 q 414 -19 579 -19 q 167 82 270 -19 q 65 328 65 182 q 168 577 65 476 q 422 679 271 679 q 686 551 589 679 q 937 679 777 679 q 1172 586 1085 679 q 1259 334 1259 493 l 1257 294 m 1097 419 q 943 541 1071 541 q 787 419 821 541 l 1097 419 m 222 332 q 273 175 222 233 q 412 117 324 117 q 496 132 459 117 q 558 174 532 146 q 596 241 583 201 q 610 330 610 280 q 596 419 610 380 q 558 486 583 458 q 497 527 533 513 q 416 541 461 541 q 274 484 327 541 q 222 332 222 428 z "},"Ŕ":{"ha":836,"x_min":125,"x_max":804,"o":"m 480 446 l 804 0 l 611 0 l 312 429 l 283 429 l 283 0 l 125 0 l 125 1047 l 311 1047 q 610 969 518 1047 q 712 740 712 882 q 648 549 712 629 q 480 446 585 469 m 283 566 l 334 566 q 558 738 558 566 q 340 899 558 899 l 283 899 l 283 566 m 595 1329 l 319 1141 l 243 1204 l 461 1423 l 595 1329 z "},"ŕ":{"ha":519,"x_min":96,"x_max":528,"o":"m 96 661 l 249 661 l 249 602 q 323 662 291 646 q 402 679 357 679 q 528 640 463 679 l 458 500 q 374 531 415 531 q 249 342 249 531 l 249 0 l 96 0 l 96 661 m 525 986 l 278 762 l 195 814 l 381 1061 l 525 986 z "},"Ŗ":{"ha":836,"x_min":125,"x_max":804,"o":"m 480 446 l 804 0 l 611 0 l 312 429 l 283 429 l 283 0 l 125 0 l 125 1047 l 311 1047 q 610 969 518 1047 q 712 740 712 882 q 648 549 712 629 q 480 446 585 469 m 283 566 l 334 566 q 558 738 558 566 q 340 899 558 899 l 283 899 l 283 566 m 490 -298 l 439 -401 l 355 -365 l 396 -262 l 393 -231 l 338 -231 l 338 -62 l 490 -62 l 490 -298 z "},"ŗ":{"ha":519,"x_min":96,"x_max":528,"o":"m 96 661 l 249 661 l 249 602 q 323 662 291 646 q 402 679 357 679 q 528 640 463 679 l 458 500 q 374 531 415 531 q 249 342 249 531 l 249 0 l 96 0 l 96 661 m 330 -298 l 279 -401 l 195 -365 l 236 -262 l 233 -231 l 178 -231 l 178 -62 l 330 -62 l 330 -298 z "},"Ř":{"ha":836,"x_min":125,"x_max":804,"o":"m 480 446 l 804 0 l 611 0 l 312 429 l 283 429 l 283 0 l 125 0 l 125 1047 l 311 1047 q 610 969 518 1047 q 712 740 712 882 q 648 549 712 629 q 480 446 585 469 m 283 566 l 334 566 q 558 738 558 566 q 340 899 558 899 l 283 899 l 283 566 m 618 1359 l 380 1141 l 139 1359 l 243 1440 l 380 1311 l 515 1440 l 618 1359 z "},"ř":{"ha":519,"x_min":39,"x_max":528,"o":"m 96 661 l 249 661 l 249 602 q 323 662 291 646 q 402 679 357 679 q 528 640 463 679 l 458 500 q 374 531 415 531 q 249 342 249 531 l 249 0 l 96 0 l 96 661 m 519 980 l 281 762 l 39 980 l 144 1061 l 280 932 l 416 1061 l 519 980 z "},"Ś":{"ha":810,"x_min":73,"x_max":745,"o":"m 718 891 l 589 815 q 521 897 553 878 q 433 918 487 918 q 324 881 368 918 q 281 789 281 844 q 395 665 281 712 l 499 623 q 686 497 627 571 q 745 315 745 422 q 648 76 745 170 q 408 -19 551 -19 q 182 62 271 -19 q 73 289 95 142 l 233 324 q 271 197 244 232 q 414 129 320 129 q 536 178 488 129 q 585 304 585 228 q 577 360 585 334 q 550 407 568 385 q 504 447 532 428 q 436 482 475 465 l 335 524 q 120 790 120 615 q 210 987 120 908 q 435 1067 300 1067 q 718 891 616 1067 m 652 1329 l 376 1141 l 300 1204 l 518 1423 l 652 1329 z "},"ś":{"ha":564,"x_min":52,"x_max":526,"o":"m 480 548 l 354 481 q 280 542 324 542 q 244 528 259 542 q 229 492 229 514 q 317 417 229 454 q 481 321 439 365 q 523 202 523 277 q 452 42 523 106 q 287 -19 384 -19 q 52 143 121 -19 l 182 203 q 223 143 209 156 q 290 117 251 117 q 367 188 367 117 q 307 264 367 229 q 261 286 284 275 q 214 309 238 297 q 121 374 148 341 q 86 480 86 415 q 145 623 86 566 q 292 679 205 679 q 480 548 418 679 m 526 986 l 279 762 l 196 814 l 382 1061 l 526 986 z "},"Ŝ":{"ha":810,"x_min":73,"x_max":745,"o":"m 718 891 l 589 815 q 521 897 553 878 q 433 918 487 918 q 324 881 368 918 q 281 789 281 844 q 395 665 281 712 l 499 623 q 686 497 627 571 q 745 315 745 422 q 648 76 745 170 q 408 -19 551 -19 q 182 62 271 -19 q 73 289 95 142 l 233 324 q 271 197 244 232 q 414 129 320 129 q 536 178 488 129 q 585 304 585 228 q 577 360 585 334 q 550 407 568 385 q 504 447 532 428 q 436 482 475 465 l 335 524 q 120 790 120 615 q 210 987 120 908 q 435 1067 300 1067 q 718 891 616 1067 m 185 1220 l 423 1438 l 665 1220 l 560 1139 l 423 1268 l 288 1139 l 185 1220 z "},"ŝ":{"ha":564,"x_min":50,"x_max":530,"o":"m 480 548 l 354 481 q 280 542 324 542 q 244 528 259 542 q 229 492 229 514 q 317 417 229 454 q 481 321 439 365 q 523 202 523 277 q 452 42 523 106 q 287 -19 384 -19 q 52 143 121 -19 l 182 203 q 223 143 209 156 q 290 117 251 117 q 367 188 367 117 q 307 264 367 229 q 261 286 284 275 q 214 309 238 297 q 121 374 148 341 q 86 480 86 415 q 145 623 86 566 q 292 679 205 679 q 480 548 418 679 m 50 843 l 288 1061 l 530 843 l 425 762 l 288 891 l 153 762 l 50 843 z "},"Ş":{"ha":810,"x_min":73,"x_max":745,"o":"m 718 891 l 589 815 q 521 897 553 878 q 433 918 487 918 q 324 881 368 918 q 281 789 281 844 q 395 665 281 712 l 499 623 q 686 497 627 571 q 745 315 745 422 q 648 76 745 170 q 408 -19 551 -19 q 182 62 271 -19 q 73 289 95 142 l 233 324 q 271 197 244 232 q 414 129 320 129 q 536 178 488 129 q 585 304 585 228 q 577 360 585 334 q 550 407 568 385 q 504 447 532 428 q 436 482 475 465 l 335 524 q 120 790 120 615 q 210 987 120 908 q 435 1067 300 1067 q 718 891 616 1067 m 534 -135 l 372 -342 l 273 -293 l 408 -83 l 534 -135 z "},"ş":{"ha":564,"x_min":52,"x_max":523,"o":"m 408 -135 l 246 -342 l 147 -293 l 282 -83 l 408 -135 m 480 548 l 354 481 q 280 542 324 542 q 244 528 259 542 q 229 492 229 514 q 317 417 229 454 q 481 321 439 365 q 523 202 523 277 q 452 42 523 106 q 287 -19 384 -19 q 52 143 121 -19 l 182 203 q 223 143 209 156 q 290 117 251 117 q 367 188 367 117 q 307 264 367 229 q 261 286 284 275 q 214 309 238 297 q 121 374 148 341 q 86 480 86 415 q 145 623 86 566 q 292 679 205 679 q 480 548 418 679 z "},"Š":{"ha":810,"x_min":73,"x_max":745,"o":"m 718 891 l 589 815 q 521 897 553 878 q 433 918 487 918 q 324 881 368 918 q 281 789 281 844 q 395 665 281 712 l 499 623 q 686 497 627 571 q 745 315 745 422 q 648 76 745 170 q 408 -19 551 -19 q 182 62 271 -19 q 73 289 95 142 l 233 324 q 271 197 244 232 q 414 129 320 129 q 536 178 488 129 q 585 304 585 228 q 577 360 585 334 q 550 407 568 385 q 504 447 532 428 q 436 482 475 465 l 335 524 q 120 790 120 615 q 210 987 120 908 q 435 1067 300 1067 q 718 891 616 1067 m 660 1362 l 422 1144 l 180 1362 l 285 1442 l 421 1314 l 557 1442 l 660 1362 z "},"š":{"ha":564,"x_min":43,"x_max":523,"o":"m 522 980 l 284 762 l 43 980 l 147 1061 l 283 932 l 419 1061 l 522 980 m 480 548 l 354 481 q 280 542 324 542 q 244 528 259 542 q 229 492 229 514 q 317 417 229 454 q 481 321 439 365 q 523 202 523 277 q 452 42 523 106 q 287 -19 384 -19 q 52 143 121 -19 l 182 203 q 223 143 209 156 q 290 117 251 117 q 367 188 367 117 q 307 264 367 229 q 261 286 284 275 q 214 309 238 297 q 121 374 148 341 q 86 480 86 415 q 145 623 86 566 q 292 679 205 679 q 480 548 418 679 z "},"Ţ":{"ha":670,"x_min":16,"x_max":654,"o":"m 414 899 l 414 0 l 256 0 l 256 899 l 16 899 l 16 1047 l 654 1047 l 654 899 l 414 899 m 412 -298 l 361 -401 l 277 -365 l 318 -262 l 315 -231 l 260 -231 l 260 -62 l 412 -62 l 412 -298 z "},"ţ":{"ha":380,"x_min":36,"x_max":372,"o":"m 254 518 l 254 0 l 101 0 l 101 518 l 36 518 l 36 661 l 101 661 l 101 903 l 254 903 l 254 661 l 372 661 l 372 518 l 254 518 m 255 -298 l 204 -401 l 119 -365 l 161 -262 l 157 -231 l 102 -231 l 102 -62 l 255 -62 l 255 -298 z "},"Ť":{"ha":670,"x_min":16,"x_max":654,"o":"m 414 899 l 414 0 l 256 0 l 256 899 l 16 899 l 16 1047 l 654 1047 l 654 899 l 414 899 m 576 1359 l 338 1141 l 96 1359 l 201 1440 l 337 1311 l 473 1440 l 576 1359 z "},"ť":{"ha":523,"x_min":36,"x_max":499,"o":"m 254 518 l 254 0 l 101 0 l 101 518 l 36 518 l 36 661 l 101 661 l 101 903 l 254 903 l 254 661 l 372 661 l 372 518 l 254 518 m 499 805 l 448 703 l 363 739 l 405 841 l 401 872 l 347 872 l 347 1042 l 499 1042 l 499 805 z "},"Ŧ":{"ha":670,"x_min":16,"x_max":654,"o":"m 414 899 l 414 0 l 256 0 l 256 899 l 16 899 l 16 1047 l 654 1047 l 654 899 l 414 899 m 180 667 l 482 667 l 482 534 l 180 534 l 180 667 z "},"ŧ":{"ha":380,"x_min":28,"x_max":372,"o":"m 254 518 l 254 0 l 101 0 l 101 518 l 36 518 l 36 661 l 101 661 l 101 903 l 254 903 l 254 661 l 372 661 l 372 518 l 254 518 m 28 398 l 331 398 l 331 265 l 28 265 l 28 398 z "},"Ũ":{"ha":1026,"x_min":125,"x_max":901,"o":"m 283 1047 l 283 416 q 328 219 283 281 q 513 129 393 129 q 699 219 633 129 q 743 416 743 279 l 743 1047 l 901 1047 l 901 373 q 798 100 901 208 q 513 -19 682 -19 q 229 100 344 -19 q 125 373 125 208 l 125 1047 l 283 1047 m 335 1141 l 246 1216 l 266 1244 q 302 1290 285 1271 q 338 1320 320 1308 q 376 1337 357 1332 q 419 1342 396 1342 q 542 1307 472 1342 q 633 1271 612 1271 q 717 1344 671 1271 l 803 1272 q 627 1142 738 1142 q 503 1180 589 1142 q 410 1211 441 1211 q 335 1141 373 1211 z "},"ũ":{"ha":757,"x_min":96,"x_max":671,"o":"m 249 661 l 249 281 q 378 117 249 117 q 508 281 508 117 l 508 661 l 661 661 l 661 278 q 641 141 661 199 q 575 48 622 90 q 378 -19 498 -19 q 182 48 260 -19 q 115 141 135 90 q 96 278 96 187 l 96 661 l 249 661 m 203 773 l 115 848 l 134 876 q 171 922 153 903 q 207 952 189 941 q 245 969 225 964 q 288 975 264 975 q 410 939 340 975 q 501 903 481 903 q 585 977 539 903 l 671 905 q 495 774 606 774 q 371 812 457 774 q 279 844 309 844 q 203 773 241 844 z "},"Ū":{"ha":1026,"x_min":125,"x_max":901,"o":"m 283 1047 l 283 416 q 328 219 283 281 q 513 129 393 129 q 699 219 633 129 q 743 416 743 279 l 743 1047 l 901 1047 l 901 373 q 798 100 901 208 q 513 -19 682 -19 q 229 100 344 -19 q 125 373 125 208 l 125 1047 l 283 1047 m 277 1293 l 753 1293 l 753 1171 l 277 1171 l 277 1293 z "},"ū":{"ha":757,"x_min":96,"x_max":661,"o":"m 249 661 l 249 281 q 378 117 249 117 q 508 281 508 117 l 508 661 l 661 661 l 661 278 q 641 141 661 199 q 575 48 622 90 q 378 -19 498 -19 q 182 48 260 -19 q 115 141 135 90 q 96 278 96 187 l 96 661 l 249 661 m 144 911 l 620 911 l 620 789 l 144 789 l 144 911 z "},"Ŭ":{"ha":1026,"x_min":125,"x_max":901,"o":"m 283 1047 l 283 416 q 328 219 283 281 q 513 129 393 129 q 699 219 633 129 q 743 416 743 279 l 743 1047 l 901 1047 l 901 373 q 798 100 901 208 q 513 -19 682 -19 q 229 100 344 -19 q 125 373 125 208 l 125 1047 l 283 1047 m 273 1373 l 398 1373 q 516 1267 413 1267 q 633 1373 618 1267 l 759 1373 q 687 1203 749 1261 q 513 1146 625 1146 q 345 1206 409 1146 q 273 1373 281 1266 z "},"ŭ":{"ha":757,"x_min":96,"x_max":661,"o":"m 249 661 l 249 281 q 378 117 249 117 q 508 281 508 117 l 508 661 l 661 661 l 661 278 q 641 141 661 199 q 575 48 622 90 q 378 -19 498 -19 q 182 48 260 -19 q 115 141 135 90 q 96 278 96 187 l 96 661 l 249 661 m 150 991 l 275 991 q 393 885 290 885 q 511 991 496 885 l 636 991 q 564 822 626 879 q 390 764 502 764 q 222 825 286 764 q 150 991 158 884 z "},"Ů":{"ha":1026,"x_min":125,"x_max":901,"o":"m 283 1047 l 283 416 q 328 219 283 281 q 513 129 393 129 q 699 219 633 129 q 743 416 743 279 l 743 1047 l 901 1047 l 901 373 q 798 100 901 208 q 513 -19 682 -19 q 229 100 344 -19 q 125 373 125 208 l 125 1047 l 283 1047 m 374 1293 q 417 1395 374 1352 q 521 1438 460 1438 q 625 1395 583 1438 q 669 1291 669 1352 q 625 1186 669 1230 q 522 1143 583 1143 q 416 1186 460 1143 q 374 1293 374 1230 m 454 1291 q 474 1243 454 1262 q 522 1223 493 1223 q 569 1243 550 1223 q 589 1291 589 1262 q 569 1338 589 1319 q 522 1358 550 1358 q 495 1352 507 1358 q 474 1338 483 1347 q 459 1316 465 1329 q 454 1291 454 1304 z "},"ů":{"ha":757,"x_min":96,"x_max":661,"o":"m 249 661 l 249 281 q 378 117 249 117 q 508 281 508 117 l 508 661 l 661 661 l 661 278 q 641 141 661 199 q 575 48 622 90 q 378 -19 498 -19 q 182 48 260 -19 q 115 141 135 90 q 96 278 96 187 l 96 661 l 249 661 m 235 912 q 279 1015 235 972 q 382 1058 322 1058 q 487 1015 444 1058 q 530 910 530 971 q 487 806 530 849 q 383 762 444 762 q 278 806 321 762 q 235 912 235 849 m 316 911 q 335 862 316 882 q 383 843 355 843 q 431 862 412 843 q 450 910 450 882 q 431 958 450 939 q 383 977 412 977 q 357 972 369 977 q 335 957 345 966 q 321 936 326 948 q 316 911 316 924 z "},"Ű":{"ha":1026,"x_min":125,"x_max":914,"o":"m 283 1047 l 283 416 q 328 219 283 281 q 513 129 393 129 q 699 219 633 129 q 743 416 743 279 l 743 1047 l 901 1047 l 901 373 q 798 100 901 208 q 513 -19 682 -19 q 229 100 344 -19 q 125 373 125 208 l 125 1047 l 283 1047 m 914 1329 l 637 1141 l 562 1204 l 780 1423 l 914 1329 m 631 1329 l 354 1141 l 279 1204 l 496 1423 l 631 1329 z "},"ű":{"ha":757,"x_min":96,"x_max":747,"o":"m 249 661 l 249 281 q 378 117 249 117 q 508 281 508 117 l 508 661 l 661 661 l 661 278 q 641 141 661 199 q 575 48 622 90 q 378 -19 498 -19 q 182 48 260 -19 q 115 141 135 90 q 96 278 96 187 l 96 661 l 249 661 m 465 986 l 238 762 l 171 814 l 336 1061 l 465 986 m 747 986 l 521 762 l 454 814 l 618 1061 l 747 986 z "},"Ų":{"ha":1026,"x_min":125,"x_max":901,"o":"m 283 1047 l 283 416 q 328 219 283 281 q 513 129 393 129 q 699 219 633 129 q 743 416 743 279 l 743 1047 l 901 1047 l 901 373 q 798 100 901 208 q 513 -19 682 -19 q 229 100 344 -19 q 125 373 125 208 l 125 1047 l 283 1047 m 505 0 l 637 0 q 506 -152 506 -87 q 574 -208 506 -208 q 618 -204 594 -208 q 673 -194 642 -201 l 657 -307 q 541 -340 604 -340 q 416 -298 466 -340 q 367 -196 367 -259 q 398 -94 367 -135 q 505 0 429 -49 z "},"ų":{"ha":757,"x_min":96,"x_max":661,"o":"m 249 661 l 249 281 q 378 117 249 117 q 508 281 508 117 l 508 661 l 661 661 l 661 278 q 641 141 661 199 q 575 48 622 90 q 378 -19 498 -19 q 182 48 260 -19 q 115 141 135 90 q 96 278 96 187 l 96 661 l 249 661 m 361 0 l 494 0 q 362 -152 362 -87 q 431 -208 362 -208 q 474 -204 450 -208 q 529 -194 498 -201 l 513 -307 q 397 -340 460 -340 q 273 -298 322 -340 q 223 -196 223 -259 q 254 -94 223 -135 q 361 0 286 -49 z "},"Ŵ":{"ha":1473,"x_min":5,"x_max":1468,"o":"m 177 1047 l 450 347 l 734 1098 l 1007 347 l 1297 1047 l 1468 1047 l 1000 -66 l 731 675 l 450 -67 l 5 1047 l 177 1047 m 497 1225 l 735 1442 l 977 1225 l 872 1144 l 735 1273 l 600 1144 l 497 1225 z "},"ŵ":{"ha":1075,"x_min":7,"x_max":1068,"o":"m 179 661 l 352 283 l 538 721 l 726 283 l 897 661 l 1068 661 l 722 -50 l 538 376 l 353 -50 l 7 661 l 179 661 m 299 848 l 537 1065 l 779 848 l 674 767 l 537 896 l 402 767 l 299 848 z "},"Ŷ":{"ha":833,"x_min":-5,"x_max":838,"o":"m 337 452 l -5 1047 l 177 1047 l 416 629 l 656 1047 l 838 1047 l 495 452 l 495 0 l 337 0 l 337 452 m 175 1221 l 413 1438 l 654 1221 l 550 1140 l 413 1269 l 278 1140 l 175 1221 z "},"ŷ":{"ha":755,"x_min":7,"x_max":747,"o":"m 304 123 l 7 661 l 184 661 l 387 281 l 575 661 l 747 661 l 221 -359 l 47 -359 l 304 123 m 149 843 l 387 1061 l 629 843 l 524 762 l 387 891 l 252 762 l 149 843 z "},"Ÿ":{"ha":833,"x_min":-5,"x_max":838,"o":"m 337 452 l -5 1047 l 177 1047 l 416 629 l 656 1047 l 838 1047 l 495 452 l 495 0 l 337 0 l 337 452 m 169 1251 q 197 1318 169 1290 q 265 1347 226 1347 q 334 1318 306 1347 q 362 1249 362 1290 q 334 1181 362 1209 q 266 1152 306 1152 q 197 1181 225 1152 q 169 1251 169 1211 m 473 1251 q 502 1318 473 1290 q 570 1347 530 1347 q 639 1318 610 1347 q 667 1249 667 1290 q 639 1181 667 1209 q 570 1152 610 1152 q 501 1181 530 1152 q 473 1251 473 1211 z "},"Ź":{"ha":868,"x_min":47,"x_max":821,"o":"m 307 149 l 809 149 l 809 0 l 47 0 l 561 899 l 131 899 l 131 1047 l 821 1047 l 307 149 m 686 1329 l 410 1141 l 334 1204 l 552 1423 l 686 1329 z "},"ź":{"ha":755,"x_min":13,"x_max":743,"o":"m 315 144 l 708 144 l 708 0 l 13 0 l 441 518 l 104 518 l 104 661 l 743 661 l 315 144 m 652 986 l 406 762 l 322 814 l 509 1061 l 652 986 z "},"Ż":{"ha":868,"x_min":47,"x_max":821,"o":"m 307 149 l 809 149 l 809 0 l 47 0 l 561 899 l 131 899 l 131 1047 l 821 1047 l 307 149 m 361 1255 q 391 1326 361 1297 q 463 1356 422 1356 q 535 1326 505 1356 q 566 1255 566 1297 q 535 1182 566 1211 q 463 1152 505 1152 q 391 1182 420 1152 q 361 1255 361 1214 z "},"ż":{"ha":755,"x_min":13,"x_max":743,"o":"m 315 144 l 708 144 l 708 0 l 13 0 l 441 518 l 104 518 l 104 661 l 743 661 l 315 144 m 309 876 q 338 947 309 917 q 411 977 370 977 q 483 947 453 977 q 513 875 513 917 q 483 803 513 832 q 411 773 453 773 q 338 803 368 773 q 309 876 309 833 z "},"Ž":{"ha":868,"x_min":47,"x_max":821,"o":"m 307 149 l 809 149 l 809 0 l 47 0 l 561 899 l 131 899 l 131 1047 l 821 1047 l 307 149 m 705 1359 l 467 1141 l 226 1359 l 330 1440 l 467 1311 l 602 1440 l 705 1359 z "},"ž":{"ha":755,"x_min":13,"x_max":743,"o":"m 315 144 l 708 144 l 708 0 l 13 0 l 441 518 l 104 518 l 104 661 l 743 661 l 315 144 m 649 980 l 411 762 l 170 980 l 274 1061 l 410 932 l 546 1061 l 649 980 z "},"ƒ":{"ha":890,"x_min":41,"x_max":786,"o":"m 538 662 l 710 662 l 693 538 l 517 538 l 443 127 q 420 17 431 64 q 397 -62 408 -31 q 335 -162 375 -122 q 92 -251 246 -251 q 41 -249 75 -251 l 66 -104 q 208 -68 168 -104 q 284 125 259 -21 l 357 538 l 229 538 l 245 662 l 380 662 l 409 831 q 502 1040 433 972 q 688 1107 570 1107 q 786 1093 730 1107 l 758 948 q 689 962 720 962 q 610 930 636 962 q 567 811 584 898 l 538 662 z "},"Ș":{"ha":810,"x_min":73,"x_max":745,"o":"m 718 891 l 589 815 q 521 897 553 878 q 433 918 487 918 q 324 881 368 918 q 281 789 281 844 q 395 665 281 712 l 499 623 q 686 497 627 571 q 745 315 745 422 q 648 76 745 170 q 408 -19 551 -19 q 182 62 271 -19 q 73 289 95 142 l 233 324 q 271 197 244 232 q 414 129 320 129 q 536 178 488 129 q 585 304 585 228 q 577 360 585 334 q 550 407 568 385 q 504 447 532 428 q 436 482 475 465 l 335 524 q 120 790 120 615 q 210 987 120 908 q 435 1067 300 1067 q 718 891 616 1067 m 543 -143 l 366 -352 l 267 -300 l 410 -83 l 543 -143 z "},"ș":{"ha":564,"x_min":52,"x_max":523,"o":"m 408 -135 l 245 -342 l 146 -293 l 281 -83 l 408 -135 m 480 548 l 354 481 q 280 542 324 542 q 244 528 259 542 q 229 492 229 514 q 317 417 229 454 q 481 321 439 365 q 523 202 523 277 q 452 42 523 106 q 287 -19 384 -19 q 52 143 121 -19 l 182 203 q 223 143 209 156 q 290 117 251 117 q 367 188 367 117 q 307 264 367 229 q 261 286 284 275 q 214 309 238 297 q 121 374 148 341 q 86 480 86 415 q 145 623 86 566 q 292 679 205 679 q 480 548 418 679 z "},"ʻ":{"ha":454,"x_min":79,"x_max":375,"o":"m 215 652 l 79 705 l 272 1093 l 375 1050 l 215 652 z "},"ʼ":{"ha":454,"x_min":79,"x_max":375,"o":"m 239 1093 l 375 1040 l 182 652 l 79 694 l 239 1093 z "},"ˆ":{"ha":785,"x_min":153,"x_max":633,"o":"m 153 843 l 391 1061 l 633 843 l 528 762 l 391 891 l 256 762 l 153 843 z "},"ˇ":{"ha":785,"x_min":153,"x_max":633,"o":"m 633 980 l 395 762 l 153 980 l 258 1061 l 394 932 l 530 1061 l 633 980 z "},"˘":{"ha":785,"x_min":150,"x_max":636,"o":"m 150 991 l 275 991 q 393 885 290 885 q 511 991 496 885 l 636 991 q 564 822 626 879 q 390 764 502 764 q 222 825 286 764 q 150 991 158 884 z "},"˙":{"ha":785,"x_min":290,"x_max":495,"o":"m 290 876 q 320 947 290 917 q 393 977 352 977 q 465 947 435 977 q 495 875 495 917 q 465 803 495 832 q 393 773 435 773 q 320 803 350 773 q 290 876 290 833 z "},"˚":{"ha":785,"x_min":266,"x_max":561,"o":"m 266 912 q 309 1015 266 972 q 413 1058 353 1058 q 517 1015 475 1058 q 561 910 561 971 q 517 806 561 849 q 414 762 475 762 q 309 806 352 762 q 266 912 266 849 m 347 911 q 366 862 347 882 q 414 843 385 843 q 461 862 442 843 q 481 910 481 882 q 461 958 481 939 q 414 977 442 977 q 387 972 399 977 q 366 957 375 966 q 352 936 357 948 q 347 911 347 924 z "},"˛":{"ha":903,"x_min":311,"x_max":617,"o":"m 449 0 l 582 0 q 450 -152 450 -87 q 519 -208 450 -208 q 563 -204 538 -208 q 617 -194 587 -201 l 602 -307 q 485 -340 548 -340 q 361 -298 410 -340 q 311 -196 311 -259 q 342 -94 311 -135 q 449 0 374 -49 z "},"˜":{"ha":785,"x_min":115,"x_max":671,"o":"m 203 773 l 115 848 l 134 876 q 171 922 153 903 q 207 952 189 941 q 245 969 225 964 q 288 975 264 975 q 410 939 340 975 q 501 903 481 903 q 585 977 539 903 l 671 905 q 495 774 606 774 q 371 812 457 774 q 279 844 309 844 q 203 773 241 844 z "},"˝":{"ha":785,"x_min":199,"x_max":775,"o":"m 492 986 l 266 762 l 199 814 l 364 1061 l 492 986 m 775 986 l 549 762 l 481 814 l 646 1061 l 775 986 z "},"̀":{"ha":0,"x_min":-651,"x_max":-321,"o":"m -651 986 l -508 1061 l -321 814 l -405 762 l -651 986 z "},"́":{"ha":0,"x_min":-463,"x_max":-132,"o":"m -132 986 l -379 762 l -463 814 l -276 1061 l -132 986 z "},"̂":{"ha":0,"x_min":-631,"x_max":-152,"o":"m -631 843 l -393 1061 l -152 843 l -256 762 l -393 891 l -528 762 l -631 843 z "},"̃":{"ha":0,"x_min":-670,"x_max":-113,"o":"m -581 773 l -670 848 l -650 876 q -614 922 -631 903 q -578 952 -596 941 q -540 969 -559 964 q -497 975 -520 975 q -374 939 -444 975 q -283 903 -304 903 q -199 977 -245 903 l -113 905 q -290 774 -178 774 q -414 812 -328 774 q -506 844 -475 844 q -581 773 -543 844 z "},"̄":{"ha":0,"x_min":-629,"x_max":-154,"o":"m -629 911 l -154 911 l -154 789 l -629 789 l -629 911 z "},"̆":{"ha":0,"x_min":-635,"x_max":-149,"o":"m -635 991 l -509 991 q -391 885 -494 885 q -274 991 -289 885 l -149 991 q -221 822 -159 879 q -395 764 -283 764 q -563 825 -498 764 q -635 991 -627 884 z "},"̇":{"ha":0,"x_min":-494,"x_max":-290,"o":"m -494 876 q -465 947 -494 917 q -392 977 -433 977 q -320 947 -350 977 q -290 875 -290 917 q -320 803 -290 832 q -392 773 -350 773 q -465 803 -435 773 q -494 876 -494 833 z "},"̈":{"ha":0,"x_min":-631,"x_max":-153,"o":"m -631 871 q -602 938 -631 910 q -534 966 -574 966 q -465 938 -494 966 q -437 870 -437 910 q -465 801 -437 829 q -534 773 -495 773 q -603 802 -574 773 q -631 871 -631 831 m -347 871 q -319 938 -347 910 q -250 966 -290 966 q -182 938 -210 966 q -153 870 -153 910 q -182 801 -153 829 q -250 773 -212 773 q -319 802 -290 773 q -347 871 -347 830 z "},"̊":{"ha":0,"x_min":-519,"x_max":-224,"o":"m -519 912 q -475 1015 -519 972 q -372 1058 -432 1058 q -267 1015 -310 1058 q -224 910 -224 971 q -267 806 -224 849 q -371 762 -310 762 q -476 806 -433 762 q -519 912 -519 849 m -438 911 q -419 862 -438 882 q -371 843 -399 843 q -323 862 -342 843 q -304 910 -304 882 q -323 958 -304 939 q -371 977 -342 977 q -397 972 -385 977 q -419 957 -410 966 q -433 936 -428 948 q -438 911 -438 924 z "},"̋":{"ha":0,"x_min":-586,"x_max":-9,"o":"m -292 986 l -519 762 l -586 814 l -420 1061 l -292 986 m -9 986 l -236 762 l -303 814 l -138 1061 l -9 986 z "},"̌":{"ha":0,"x_min":-631,"x_max":-152,"o":"m -152 980 l -390 762 l -631 980 l -527 1061 l -391 932 l -255 1061 l -152 980 z "},"̦":{"ha":0,"x_min":-240,"x_max":-87,"o":"m -87 -298 l -138 -401 l -223 -365 l -182 -262 l -185 -231 l -240 -231 l -240 -62 l -87 -62 l -87 -298 z "},"̧":{"ha":0,"x_min":-512,"x_max":-251,"o":"m -251 -135 l -413 -342 l -512 -293 l -377 -83 l -251 -135 z "},"̨":{"ha":0,"x_min":-591,"x_max":-286,"o":"m -454 0 l -321 0 q -452 -152 -452 -87 q -384 -208 -452 -208 q -340 -204 -364 -208 q -286 -194 -316 -201 l -301 -307 q -418 -340 -355 -340 q -542 -298 -492 -340 q -591 -196 -591 -259 q -560 -94 -591 -135 q -454 0 -529 -49 z "},"̸":{"ha":0,"x_min":-728,"x_max":-4,"o":"m -130 1157 l -4 1101 l -604 -286 l -728 -230 l -130 1157 z "},"Δ":{"ha":1047,"x_min":35,"x_max":1012,"o":"m 35 0 l 436 1047 l 606 1047 l 1012 0 l 35 0 m 259 146 l 784 146 l 522 856 l 259 146 z "},"Ω":{"ha":1047,"x_min":45,"x_max":1003,"o":"m 45 0 l 45 141 l 294 141 q 104 323 164 220 q 45 570 45 425 q 182 928 45 785 q 524 1073 319 1073 q 865 928 728 1073 q 1003 570 1003 785 q 943 323 1003 425 q 754 141 884 220 l 1002 141 l 1002 0 l 586 0 l 586 126 q 839 557 839 269 q 769 793 839 694 q 525 932 671 932 q 298 823 389 932 q 208 550 208 714 q 463 126 208 269 l 463 0 l 45 0 z "},"π":{"ha":976,"x_min":52,"x_max":925,"o":"m 170 0 l 170 612 l 52 612 l 52 753 l 925 753 l 925 612 l 808 612 l 808 0 l 651 0 l 651 612 l 327 612 l 327 0 l 170 0 z "},"‍":{"ha":0,"x_min":0,"x_max":0,"o":""},"–":{"ha":890,"x_min":161,"x_max":729,"o":"m 161 402 l 729 402 l 729 269 l 161 269 l 161 402 z "},"—":{"ha":906,"x_min":0,"x_max":906,"o":"m 0 402 l 906 402 l 906 269 l 0 269 l 0 402 z "},"‚":{"ha":454,"x_min":79,"x_max":375,"o":"m 239 196 l 375 143 l 182 -244 l 79 -201 l 239 196 z "},"“":{"ha":725,"x_min":79,"x_max":646,"o":"m 486 652 l 350 705 l 543 1093 l 646 1050 l 486 652 m 215 652 l 79 705 l 272 1093 l 375 1050 l 215 652 z "},"”":{"ha":725,"x_min":79,"x_max":646,"o":"m 239 1093 l 375 1040 l 182 652 l 79 694 l 239 1093 m 511 1093 l 646 1040 l 453 652 l 350 694 l 511 1093 z "},"„":{"ha":725,"x_min":79,"x_max":646,"o":"m 239 196 l 375 143 l 182 -244 l 79 -201 l 239 196 m 511 196 l 646 143 l 453 -244 l 350 -201 l 511 196 z "},"†":{"ha":890,"x_min":153,"x_max":738,"o":"m 369 1145 l 522 1145 l 522 904 l 738 904 l 738 756 l 522 756 l 522 -278 l 369 -278 l 369 756 l 153 756 l 153 904 l 369 904 l 369 1145 z "},"‡":{"ha":890,"x_min":153,"x_max":738,"o":"m 369 1145 l 522 1145 l 522 904 l 738 904 l 738 756 l 522 756 l 522 343 l 738 343 l 738 196 l 522 196 l 522 -278 l 369 -278 l 369 196 l 153 196 l 153 343 l 369 343 l 369 756 l 153 756 l 153 904 l 369 904 l 369 1145 z "},"•":{"ha":1047,"x_min":308,"x_max":739,"o":"m 527 754 q 676 689 614 754 q 739 534 739 625 q 676 378 739 442 q 524 314 613 314 q 371 378 435 314 q 308 534 308 444 q 372 690 308 626 q 527 754 436 754 z "},"…":{"ha":1312,"x_min":124,"x_max":1187,"o":"m 124 76 q 152 142 124 114 q 218 170 180 170 q 285 142 257 170 q 313 75 313 114 q 285 8 313 36 q 218 -19 258 -19 q 151 8 178 -19 q 124 76 124 35 m 561 76 q 589 142 561 114 q 655 170 616 170 q 722 142 694 170 q 750 75 750 114 q 722 8 750 36 q 656 -19 695 -19 q 589 8 616 -19 q 561 76 561 36 m 998 76 q 1026 142 998 114 q 1093 170 1054 170 q 1159 142 1131 170 q 1187 75 1187 114 q 1159 8 1187 36 q 1093 -19 1132 -19 q 1026 8 1053 -19 q 998 76 998 36 z "},"‰":{"ha":1888,"x_min":52,"x_max":1836,"o":"m 52 814 q 127 985 52 913 q 304 1058 204 1058 q 482 985 408 1058 q 557 811 557 912 q 482 637 557 709 q 302 564 408 564 q 125 638 199 564 q 52 814 52 712 m 170 812 q 210 716 170 755 q 305 677 249 677 q 399 716 360 677 q 439 811 439 755 q 399 905 439 866 q 304 945 360 945 q 210 905 249 945 q 170 812 170 866 m 899 1065 l 973 1023 l 374 -17 l 299 28 l 899 1065 m 715 241 q 790 411 715 338 q 967 484 867 484 q 1145 410 1071 484 q 1220 237 1220 338 q 1145 62 1220 134 q 965 -9 1071 -9 q 788 64 862 -9 q 715 241 715 137 m 833 238 q 872 142 833 181 q 968 102 911 102 q 1062 142 1023 102 q 1101 237 1101 181 q 1062 332 1101 292 q 967 371 1023 371 q 873 332 912 371 q 833 238 833 292 m 1331 241 q 1406 411 1331 338 q 1583 484 1482 484 q 1761 410 1687 484 q 1836 237 1836 338 q 1761 62 1836 134 q 1581 -9 1687 -9 q 1404 64 1478 -9 q 1331 241 1331 137 m 1449 238 q 1488 142 1449 181 q 1584 102 1527 102 q 1678 142 1639 102 q 1717 237 1717 181 q 1678 332 1717 292 q 1583 371 1639 371 q 1489 332 1528 371 q 1449 238 1449 292 z "},"‹":{"ha":509,"x_min":63,"x_max":426,"o":"m 222 336 l 426 76 l 324 1 l 63 335 l 324 681 l 425 606 l 222 336 z "},"›":{"ha":509,"x_min":84,"x_max":446,"o":"m 288 336 l 84 606 l 186 681 l 446 335 l 185 1 l 84 76 l 288 336 z "},"⁄":{"ha":255,"x_min":-209,"x_max":465,"o":"m 391 1065 l 465 1023 l -135 -17 l -209 28 l 391 1065 z "},"€":{"ha":857,"x_min":159,"x_max":697,"o":"m 697 918 q 427 803 538 918 q 351 694 379 753 l 616 694 l 616 584 l 159 584 q 288 876 178 745 q 697 1067 451 1067 l 697 918 m 697 -19 q 315 138 473 -19 q 160 452 182 271 l 616 452 l 616 341 l 355 341 q 427 242 380 288 q 697 129 538 129 l 697 -19 z "},"™":{"ha":1103,"x_min":-1,"x_max":1061,"o":"m 239 945 l 239 450 l 130 450 l 130 945 l -1 945 l -1 1047 l 370 1047 l 370 945 l 239 945 m 407 450 l 535 1101 l 734 661 l 932 1101 l 1061 450 l 949 450 l 894 775 l 734 439 l 574 775 l 517 450 l 407 450 z "},"Ω":{"ha":1047,"x_min":45,"x_max":1003,"o":"m 45 0 l 45 141 l 294 141 q 104 323 164 220 q 45 570 45 425 q 182 928 45 785 q 524 1073 319 1073 q 865 928 728 1073 q 1003 570 1003 785 q 943 323 1003 425 q 754 141 884 220 l 1002 141 l 1002 0 l 586 0 l 586 126 q 839 557 839 269 q 769 793 839 694 q 525 932 671 932 q 298 823 389 932 q 208 550 208 714 q 463 126 208 269 l 463 0 l 45 0 z "},"∂":{"ha":785,"x_min":37,"x_max":748,"o":"m 117 911 l 138 1048 q 397 983 301 1028 q 581 852 500 938 q 748 402 748 675 q 650 99 748 214 q 393 -15 553 -15 q 141 90 245 -15 q 37 341 37 194 q 132 582 37 484 q 363 681 227 681 q 479 659 424 681 q 576 587 528 637 q 490 734 532 684 q 442 782 469 759 q 379 825 414 804 q 117 911 262 893 m 397 565 q 254 498 312 565 q 197 334 197 432 q 254 170 197 238 q 393 103 311 103 q 531 172 475 103 q 587 340 587 240 q 533 500 587 436 q 397 565 479 565 z "},"∆":{"ha":1047,"x_min":35,"x_max":1012,"o":"m 35 0 l 436 1047 l 606 1047 l 1012 0 l 35 0 m 259 146 l 784 146 l 522 856 l 259 146 z "},"∏":{"ha":1124,"x_min":60,"x_max":1063,"o":"m 60 1178 l 1063 1178 l 1063 1031 l 935 1031 l 935 -245 l 1063 -245 l 1063 -392 l 651 -392 l 651 -245 l 779 -245 l 779 1031 l 345 1031 l 345 -245 l 471 -245 l 471 -392 l 60 -392 l 60 -245 l 188 -245 l 188 1031 l 60 1031 l 60 1178 z "},"∑":{"ha":1047,"x_min":39,"x_max":970,"o":"m 956 1178 l 956 802 l 814 802 l 799 1031 l 215 1031 l 610 422 l 215 -245 l 814 -245 l 823 -18 l 970 -18 l 970 -392 l 39 -392 l 39 -229 l 425 422 l 39 1016 l 39 1178 l 956 1178 z "},"−":{"ha":890,"x_min":84,"x_max":806,"o":"m 84 481 l 84 608 l 806 608 l 806 481 l 84 481 z "},"∕":{"ha":255,"x_min":-209,"x_max":465,"o":"m 391 1065 l 465 1023 l -135 -17 l -209 28 l 391 1065 z "},"∙":{"ha":429,"x_min":120,"x_max":309,"o":"m 120 524 q 148 590 120 562 q 214 618 176 618 q 281 590 253 618 q 309 524 309 562 q 281 456 309 484 q 214 429 254 429 q 147 456 174 429 q 120 524 120 484 z "},"√":{"ha":1047,"x_min":0,"x_max":1047,"o":"m 1047 1304 l 1047 1158 l 753 1158 l 452 0 l 249 0 l 139 448 l 0 448 l 0 595 l 268 595 l 312 423 q 342 221 323 381 l 345 199 l 358 199 q 399 432 373 309 q 461 699 425 555 l 616 1304 l 1047 1304 z "},"∞":{"ha":1047,"x_min":28,"x_max":1020,"o":"m 528 431 q 275 286 417 286 q 97 355 166 286 q 28 536 28 425 q 98 713 28 643 q 275 783 168 783 q 521 638 414 783 q 773 783 625 783 q 951 713 883 783 q 1020 534 1020 644 q 951 355 1020 425 q 775 286 883 286 q 528 431 631 286 m 602 534 q 753 419 677 419 q 833 452 801 419 q 865 534 865 486 q 832 616 865 582 q 753 649 801 649 q 602 534 677 649 m 446 534 q 294 649 372 649 q 215 616 246 649 q 183 534 183 582 q 215 452 183 486 q 295 419 248 419 q 446 534 372 419 z "},"∫":{"ha":785,"x_min":115,"x_max":671,"o":"m 115 -376 l 146 -235 q 224 -251 198 -251 q 310 -182 298 -251 q 314 -52 314 -157 l 315 809 q 334 1050 315 1004 q 547 1179 381 1179 q 603 1175 572 1179 q 671 1162 634 1171 l 640 1021 q 562 1037 588 1037 q 484 995 503 1037 q 472 853 472 964 l 471 762 l 471 -22 q 469 -150 471 -98 q 462 -230 467 -201 q 416 -323 452 -282 q 231 -390 355 -390 q 115 -376 166 -390 z "},"≈":{"ha":785,"x_min":13,"x_max":772,"o":"m 102 546 l 13 604 q 111 757 60 711 q 239 802 163 802 q 409 755 300 802 q 553 711 508 711 q 622 731 594 711 q 681 806 649 751 l 772 753 q 667 604 722 649 q 533 560 610 560 q 390 599 484 560 l 309 632 q 226 651 267 651 q 102 546 157 651 m 102 257 l 13 315 q 111 468 60 422 q 239 513 163 513 q 409 466 302 513 q 554 422 507 422 q 622 442 594 422 q 681 517 649 463 l 772 463 q 722 375 747 412 q 667 315 696 338 q 532 271 611 271 q 390 310 484 271 l 309 343 q 226 362 267 362 q 102 257 158 362 z "},"≠":{"ha":785,"x_min":52,"x_max":733,"o":"m 420 735 l 505 908 l 608 860 l 547 735 l 733 735 l 733 594 l 482 594 l 420 469 l 733 469 l 733 328 l 356 328 l 275 162 l 172 210 l 229 328 l 52 328 l 52 469 l 293 469 l 355 594 l 52 594 l 52 735 l 420 735 z "},"≤":{"ha":785,"x_min":52,"x_max":733,"o":"m 733 1002 l 733 853 l 219 621 l 733 389 l 733 240 l 52 552 l 52 686 l 733 1002 m 733 195 l 733 48 l 52 48 l 52 195 l 733 195 z "},"≥":{"ha":785,"x_min":52,"x_max":733,"o":"m 52 240 l 52 389 l 566 621 l 52 853 l 52 1002 l 733 685 l 733 551 l 52 240 m 52 48 l 52 195 l 733 195 l 733 48 l 52 48 z "},"◊":{"ha":1047,"x_min":116,"x_max":932,"o":"m 524 1088 l 932 524 l 524 -40 l 116 524 l 524 1088 m 524 834 l 298 524 l 524 214 l 749 524 l 524 834 z "},"":{"ha":1097,"x_min":71,"x_max":1040,"o":"m 567 817 q 665 840 595 817 q 786 864 736 864 q 935 819 869 864 q 971 789 953 806 q 1007 750 989 772 q 928 667 953 703 q 882 524 882 603 q 930 368 882 437 q 1040 281 978 300 q 1005 195 1026 239 q 956 107 985 151 q 777 -25 867 -25 q 677 -3 739 -25 q 574 16 618 16 q 473 -4 528 16 q 382 -28 415 -28 q 174 149 277 -28 q 71 498 71 326 q 149 758 71 657 q 347 859 228 859 q 471 838 399 859 q 567 817 545 817 m 779 1097 q 758 1001 779 1053 q 694 905 737 950 q 618 856 654 868 q 547 844 591 848 q 601 1023 549 947 q 775 1126 653 1099 q 779 1110 778 1117 q 779 1097 779 1103 z "},"ﬁ":{"ha":737,"x_min":47,"x_max":640,"o":"m 640 835 l 488 835 l 488 897 q 455 985 488 947 q 370 1023 420 1023 q 287 985 321 1023 q 254 897 254 948 l 254 661 l 429 661 l 429 518 l 254 518 l 254 0 l 101 0 l 101 518 l 47 518 l 47 661 l 101 661 l 101 897 q 180 1086 101 1008 q 371 1166 259 1166 q 561 1086 482 1166 q 640 897 640 1008 l 640 835 m 640 0 l 488 0 l 488 661 l 640 661 l 640 0 z "},"ﬂ":{"ha":737,"x_min":47,"x_max":640,"o":"m 640 0 l 488 0 l 488 897 q 454 985 488 947 q 370 1023 420 1023 q 287 985 321 1023 q 254 897 254 948 l 254 661 l 429 661 l 429 518 l 254 518 l 254 0 l 101 0 l 101 518 l 47 518 l 47 661 l 101 661 l 101 897 q 180 1086 101 1008 q 371 1166 260 1166 q 561 1086 482 1166 q 640 897 640 1008 l 640 0 z "}}}
